<?xml version="1.0" encoding="UTF-8"?><svg id="Ebene_1" xmlns="http://www.w3.org/2000/svg" viewBox="0 0 595.28 841.89"><defs><style>.cls-1{fill:#e89d73;}.cls-2{fill:#f1dfba;}.cls-3{fill:#edce9f;}.cls-4{fill:#e6ca9e;}.cls-5{fill:#e5dfdf;}.cls-6{fill:#92583b;}.cls-7{fill:#b4dcd3;}.cls-8{fill:#baa8a8;}.cls-9{fill:#ae9a6d;}.cls-10{fill:#c5ac86;}.cls-11{fill:#c4774d;}.cls-12{fill:#0c0c08;}.cls-13{fill:#43271a;}.cls-14{fill:#563a29;}.cls-15{fill:#84583f;}</style></defs><path class="cls-12" d="M278.07,426.43c-.2,.37,.16,.38,.38,.47,6.54,7,12.18,14.64,16.56,23.2,2,3.92,5.48,5.57,9.81,5.38,1.73-.08,3.48-.25,5.16-.62,7.94-1.74,15.91-3.14,24.09-2.63,3.51,.22,6.93,.79,9.87,2.86,3.54,2.49,4.27,5.91,1.9,9.53-1.31,2.01-2.85,3.89-4.47,5.67-7.92,8.75-16.71,16.59-25.68,24.22-9.63,8.18-19.36,16.25-30.17,22.89-5.65,3.47-11.41,3.63-17.42,1.16-2.51-1.04-4.86-2.36-7.08-3.91-5.71-4-10.85-8.67-15.85-13.51-9.71-9.4-19.32-18.89-30.4-26.74-1.85-1.31-2.95-1.43-4.87,.11-18.05,14.45-38.4,19.4-61.06,14.22-6.22-1.42-11.96-4.21-17.87-6.51-4.66-1.81-9.11-1.79-13.71,.36-7.51,3.5-15.32,6.27-23.34,8.37-4.38,1.15-8.8,2.21-13.4,1.93-5.47-.34-8.04-3.9-6.35-9.09,.8-2.45,1.95-4.83,3.18-7.1,5.8-10.7,12.71-20.69,19.85-30.52,5.28-7.26,10.49-14.58,16.83-20.98,5.84-5.9,12.87-8.3,21.12-6.5,3.04,.66,6.05,1.44,9.51,2.27-4.95-6.98-8.72-14.12-12.34-21.36-3.23-6.46-5.98-13.15-9.56-19.43-12.92-22.66-30.71-39.64-55.84-48.13-1-.34-1.98-.73-2.94-1.18-5-2.34-5.91-6.14-2.5-10.45,.6-.76,1.14-1.68,1.94-2.13,3.24-1.82,3.35-4.7,3.2-7.91-.18-4.06,.23-8.1,1.62-11.97,2.22-6.19,7.11-8.02,12.88-4.84,3.18,1.76,5.65,4.36,7.91,7.13,1.79,2.19,3.42,4.5,5.23,6.91,1.42-2.11,2.67-4.05,4-5.92,2.47-3.45,4.98-6.9,8.57-9.32,3.9-2.63,7.46-2.15,10.52,1.4,1.33,1.55,2.31,3.32,3.19,5.15,2.17,4.52,3.76,9.25,5.18,14.05,1.67,5.64,1.37,6.41,6.49,2.18,4.68-3.87,9.53-7.61,15.59-9.15,4.63-1.18,8.02,.71,9.48,5.22,.41,1.27,.59,2.63,.81,3.95,.88,5.4,.13,10.78-.23,16.17-.07,1.04-.44,2.01,.75,2.81,1.19,.8,2.09,.52,3.15-.14,2.95-1.82,6-3.45,9.24-4.72,.72-.28,1.42-.59,2.15-.83,9.17-2.96,14.57,.35,16.15,9.84,.82,4.89,.87,9.81,.56,14.72-.15,2.32,1.62,2.52,2.82,3.45,1.36,1.06,2.09-.07,2.93-.79,2.72-2.32,5.51-4.55,8.63-6.31,6.58-3.71,11-2.43,14.59,4.18,2.08,3.83,3.32,7.99,4.61,12.13,.29,.93,.38,1.97,1.67,1.98,2.74,.03,5.51,.38,8.42-.65-3.43-4.98-6.72-9.72-9.02-15.04-3.3-7.65-1.54-12.14,6.09-15.53,3.72-1.66,7.67-2.56,11.62-3.45,.71-.16,1.86,.03,1.82-.93-.03-.94-.16-2.19-1.5-2.53-.75-.19-1.49-.39-2.24-.59-8.86-2.33-17.61-4.96-25.77-9.23-3.26-1.71-6.36-3.65-8.86-6.41-4.01-4.41-4.5-9.49-1.39-14.61,2.06-3.39,5.04-5.82,8.39-7.81,4.4-2.62,9.06-4.73,14.01-6.03,3.18-.83,4.61-2.32,5.48-5.72,.98-3.84,.37-6.16-2.35-8.96-5.24-5.4-9.98-11.31-12.35-18.66-2.26-7.04-.12-12.29,6.38-15.74,1.86-.99,3.85-1.78,5.85-2.44,6.53-2.17,13.29-3.16,20.12-3.63,1.82-.13,2.88-.76,3.64-2.55,6.11-14.44,17.25-22.75,32.29-26.26,12.88-3.01,25.99-3.75,39.12-3.54,21.98,.35,43.45-2.38,64.38-9.21,12.8-4.18,25.49-8.73,38.61-11.85,28.78-6.85,52.97,.78,72.2,23.39,10.11,11.89,16.9,25.7,22.41,40.19,3.1,8.15,5.35,16.48,5,25.33-.2,5.07-1.47,9.77-5.17,13.42-1.38,1.36-2.17,2.84-2.74,4.61-2.76,8.63-5.67,17.21-10.38,25.01-4.82,7.99-9.85,8.06-15.15,.34-3.07-4.47-5.12-9.47-7.37-14.37-.41-.9-.33-2.47-1.58-2.47-1.68,0-1.49,1.75-1.84,2.87-.92,2.94-1.65,5.95-2.64,8.87-1.81,5.29-3.82,10.51-7.31,14.98-3.94,5.05-8.76,5.87-14.25,2.56-1.75-1.05-3.28-2.37-4.72-3.8-2.96-2.94-5.42-6.27-7.76-9.7-1.35-1.97-2.42-1.88-3.52,.21-.81,1.53-1.51,3.12-2.32,4.65-2.38,4.53-4.84,9.01-8.38,12.78-5.09,5.41-10.38,5.38-15.39-.13-2.61-2.87-4.64-6.16-6.35-9.63-1.47-2.98-2.86-6.01-4.4-9.27-.95,1.71-1.74,3.23-2.62,4.71-5.85,9.79-11.52,10.47-19.41,2.28-1.91-1.99-3.66-4.13-5.62-6.35-1.64,4.31-3.1,8.37-5.75,11.85-4.5,5.91-10.36,6.45-15.93,1.51-2.22-1.97-3.92-4.39-5.75-6.83-1.41,2.09-2.57,4.09-4,5.87-3.83,4.78-7.87,5.26-12.81,1.7-2.05-1.47-3.85-3.22-5.5-5.11-.69-.79-1.1-1.04-1.99-.06-5.52,6.13-6.09,16.03-1.26,22.78,.82,1.15,1.31,1.63,2.49,.28,1.25-1.45,2.73-2.74,4.28-3.87,4.94-3.61,9.11-2.82,12.48,2.35,1.04,1.6,1.85,3.34,2.82,5.11,2.45-1.88,4.65-3.92,7.41-5.15,5.05-2.26,9.33-.93,12.1,3.85,1.4,2.42,2.26,5.06,3.02,7.76,.41,1.48,.28,3.18,1.41,4.53,2.98-2.39,5.76-4.8,9.15-6.28,5.06-2.22,8.66-.67,10.54,4.49,.82,2.27,1.29,4.65,1.53,7.06,.29,2.8,.59,5.61,.93,8.82,3.64-3.32,6.94-6.3,10.98-8.21,5.17-2.44,8.84-1.32,11.74,3.6,.92,1.57,1.65,3.27,2.29,4.97,1.36,3.62,2.14,7.4,2.92,11.18,.23,1.1,.08,2.4,1.67,2.66,1.67,.27,1.75-1.24,2.32-2.12,1.78-2.75,3.41-5.6,5.23-8.32,1.34-2,2.89-3.87,4.82-5.36,3.26-2.52,6.47-2.26,9.23,.78,1.78,1.95,2.93,4.29,3.99,6.68,.64,1.43,1.23,2.88,1.98,4.62,3.55-5.85,6.76-11.45,10.71-16.57,1.65-2.14,3.33-4.28,5.65-5.76,2.97-1.89,5.94-1.16,7.56,1.96,.65,1.26,1.01,2.7,1.33,4.09,.89,3.9,.69,7.87,.59,11.82-.05,1.75,.16,2.69,2.22,3.17,3.5,.83,4.98,3.82,4.17,7.41-.52,2.33-1.83,4.27-3.35,6.01-6.89,7.87-14.51,14.95-23.12,20.93-3.59,2.49-7.6,4.21-11.84,5.18-10.32,2.37-20.81,3.46-31.34,2.33-30.63-3.29-59.76-12.05-87.64-25-3.22-1.5-6.34-1.44-9.86-1.32,.78,1.16,1.8,1.27,2.63,1.64,8.8,3.89,17.9,7.12,26.18,12.13,3.47,2.1,6.92,4.24,9.57,7.39,1.63,1.94,2.68,4.18,1.68,6.67-.98,2.42-3.31,3.06-5.68,3.36-1.85,.24-3.71,.37-5.73,.57,1.82,4.43,2.34,8.69,1.71,13.08-.56,3.88-3.26,5.47-6.87,4.03-.89-.35-1.76-.81-2.52-1.39-1.36-1.04-1.9-.74-2.22,.91-.62,3.13-1.57,6.17-3.73,8.64-2.17,2.48-5.12,2.98-7.78,1.35-1.59-.98-2.76-2.4-3.78-3.93-2.52-3.78-4.45-7.87-6.07-12.1-.58-1.51-1.35-2-2.96-1.92-2.88,.14-5.78,.08-8.67-.21-7.92-.8-15.43-3.19-22.91-5.73-.23-.06-.65-.23-.67-.18Zm5.09-32.53c-1.89-1.88-3.84-3.7-5.64-5.67-1.61-1.75-1.67-3.73,.23-5.27,1.76-1.43,3.57-.98,5.09,.64,.84,.9,1.48,2.01,2.63,2.6,2.19,2.65,5.19,4.21,7.99,6.03,.64,.42,1.16,.43,1.83,0,4.63-2.95,9.62-5.09,15.68-6.45-5.25-3.32-9.9-6.27-14.24-9.69-1.8-1.42-3.32-3.21-5.44-4.21-3.68-4.25-7.95-8-10.83-12.92-.97-1.65-1.99-3.27-2.85-4.97-1.94-3.85-1.55-5.02,2.21-7.08,2.12,.59,3.22,2.07,4.18,4.02,4.08,8.35,10.55,14.67,17.82,20.23,14.55,11.13,31.02,18.61,48.07,24.87,19.22,7.06,38.95,12.24,59.27,15.02,10.62,1.45,21.17,.78,31.67-1.19,9.45-1.77,16.57-7.41,23.09-14.02,.26-.27,.52-.54,.77-.8h-.16s.02,.17,.02,.17c.24-.23,.49-.47,.73-.7,0,0-.15,0-.15,0l.02,.15c.33-.29,.66-.57,.99-.86l.03-.03c3.72-3.02,7.08-6.36,10.04-10.84-5.66,0-10.48,1.2-15.24,2.61-16.06,4.76-32.17,5.74-48.36,.68-11.78-3.68-22.4-9.68-32.67-16.37-6.46-4.2-12.86-8.49-19.42-12.52-9.1-5.58-19.22-8.51-29.7-9.64-13.97-1.5-25.37-7.9-35.66-16.92-5.67-4.97-10.54-10.68-15.43-16.38l.04,.07c-.2-.27-.41-.53-.61-.8,.05-.2-.03-.33-.23-.39-.14-.16-.28-.33-.42-.49l-.03-.05c-.17-.21-.35-.43-.52-.64l.04,.04c-.19-.25-.38-.51-.58-.76-1.76-3.85-4.53-6.51-8.77-7.42-2.55-1.34-5.11-2.65-7.64-4.02-2.09-1.14-2.96-2.93-1.77-5.06,1.2-2.16,3.17-2.26,5.24-1.1,22.99,12.82,47.69,14.73,73.23,11.59,12.86-1.58,25.48-4.34,37.87-7.95,10.62-3.1,21.04-2.92,31.68-.64,6.79,1.46,13.64,2.57,20.57,3.22,10.97,1.03,21.18-1.82,31.28-5.68,12.96-4.95,25.65-10.61,38.86-14.92,4.22-1.38,8.54-2.36,12.87-3.27,5.43-.28,8.33-2.92,9.32-8.42,.87-4.86,.29-9.66-.91-14.34-4.58-17.89-12.45-34.25-24.1-48.58-17.56-21.6-40.23-27.96-66.91-21.42-13.3,3.26-26.11,8.12-39.18,12.12-18.48,5.66-37.27,8.77-56.66,8.65-14.36-.08-28.77,.05-42.91,3.12-7.97,1.73-15.56,4.35-21.4,10.47l.04-.02c-.18,.21-.36,.41-.55,.62-5.86,5.96-9.04,13.32-11.07,21.26-.72,2.8-1.27,5.63-1.85,8.46-1.45,7.09-4.11,13.54-8.94,19.12-9.07,10.49-9.09,22.49-4.95,34.87,3.6,10.77,8.34,21.14,11.4,32.1,1.94,6.97,3.58,13.97,2.6,21.32-.96,7.14-4.54,12.35-10.84,15.75-1.01,.55-2.02,1.08-3.04,1.62-18.16,4.87-34.41-.6-50-9.34-11.62-6.51-22.04-14.89-33.4-21.81-17.14-10.45-34.52-20.37-54.43-24.69-7.9-1.71-15.82-2.29-23.71,.11-2.4,.73-4.77,1.52-6.76,3.14l-.17-.05-.1,.15c-.21,.16-.43,.33-.64,.49-1.01,.26-1.76,.87-2.34,1.73-1.85,1.22-2.48,2.28,.37,2.9,9.66,3.47,18.72,8.04,26.98,14.21,15.7,11.74,27.46,26.63,35.9,44.24,4.7,9.81,9.1,19.78,15.06,28.93,2.72,4.17,5.32,8.47,9.23,11.71l-.03-.04c.03,.19,.07,.38,.12,.56,8.92,11.03,18.97,20.58,31.99,26.88,11.96,5.79,23.81,11.9,34.44,20.05,8.66,6.65,16.53,14.18,24.35,21.76,6.37,6.18,12.67,12.42,20.41,16.96,4.99,2.93,9.76,3.4,14.88,0,8.22-5.44,15.94-11.5,23.54-17.74,1.16-.95,1.49-1.64,.47-3.03-1.47-2.01-2.6-4.27-3.88-6.42-.62-1.92-1.25-3.84-1.87-5.76-.21-1.09,.08-2.29-.75-3.23l.08-.08c0-3.47-.08-6.96,.98-10.33,.35-1.11,.18-1.79-1.16-2.03-6.07-1.06-9.8-5.08-12.49-10.24-4.09-7.86-9.22-14.93-15.71-20.97-11.31-10.51-24.39-16.04-40.09-14.01-1.33,.17-2.65,.51-3.97,.78-5.86,1.13-11.41,3.12-16.53,6.21-3.54,1.5-6.66,3.72-9.89,5.77-2.57,1.63-4.49,1.52-5.84-.33-1.34-1.85-.75-3.76,1.76-5.51,1.64-1.14,3.35-2.2,5.02-3.3,8.87-5.19,18.16-9.27,28.46-10.63,7.65-1.01,15.22-.66,22.52,1.92,3.26,1.15,6.15,2.15,8.64-1.18,1.52,0,2.75,.76,3.99,1.52,11.7,7.22,24.19,12.2,38.02,13.31,2.59,.21,5.19,.29,7.78-.07,4.33-.59,5.09-.18,6.69,3.98,1.7,4.4,3.52,8.75,6.07,12.74,.33,.52,.74,2.3,1.82,.45,1.38-3.19,1.74-6.61,2.17-10,.23-1.82,.68-3.36,2.57-4.09,1.85-.71,3.07,.35,4.34,1.43,.71,.61,1.28,1.44,2.31,1.61,.27,.27,.59,.81,.8,.77,.81-.17,.51-.9,.43-1.38-.65-3.81-2.42-7.06-5.03-9.87-3.59-3.86-7.94-6.69-12.74-8.76-4.85-2.09-9.81-3.9-14.72-5.85-7.86-3.12-15.38-6.93-22.48-11.53v.06c0-.4-.26-.56-.62-.62l.04,.06c-.21-.17-.41-.34-.62-.5Zm-173.82,74.03c-.02,.59,.1,1.12,.61,1.5l-.09,.17,.15,.12c.18,.3,.36,.59,.54,.89l-.02,.21c.04,.49,.09,.98,.59,1.25l-.06-.08c0,.52,0,1.04,.63,1.23l-.04-.07c.07,.85,.1,1.71,.23,2.56,.17,1.05,.7,1.53,1.77,.92,8.5-4.85,16.64-2.57,24.83,1.08,17.23,7.69,34.61,8.24,52.06,.69,5.41-2.34,10.32-5.51,15.12-9.33-.95-.95-1.99-1.29-3.04-1.63-5.36-3.4-10.99-6.28-16.76-8.91-.55-.38-1.06-.86-1.66-1.12-12.47-5.41-21.7-14.78-30.31-24.88-1.27-1.49-2.63-2.39-4.5-2.81-5.63-1.26-11.05-3.29-16.78-4.25-5.26-.88-9.58,.8-13.16,4.33-7.44,7.33-13.23,16.01-19.36,24.41-.75,1.03-.48,1.72,.37,2.45,3.03,2.59,5.25,5.87,7.49,9.12,.31,.54,.63,1.09,.94,1.63,.01,.32,.1,.58,.49,.59l-.06-.07Zm255.1-116.31c-.53-3.3-1.2-5.97-3.06-8.23-.92-1.71-2.3-1.36-3.68-.78-1.66,.7-3.17,1.64-4.49,3.12,1.11,.8,2.16,1.32,3.43,1.26,2.16,1.94,5.04,2.62,7.8,4.62Zm-280.2-42.97c1.56-.22,1.41-.99,.66-1.91-1.86-2.27-3.46-4.81-6.22-6.18-2.72-1.78-3.21-1.54-4.13,1.35-.83,2.6-.83,5.37-.71,7.9,.11,2.25,2,.37,3.1,0,2.43-.39,4.86-.82,7.29-1.17Zm291.01,49.52c2.23,1.72,4.41,3.3,6.85,4.51,1.63,1.14,3.26,2.27,5.3,3.7,0-4.73-.38-8.95-1.91-12.84-1.3-3.31-2.97-.28-4.45,.28-2.2,.99-3.89,2.64-5.79,4.34Zm-159.01,7.93c-1.29-3.93-2.25-7.2-4.27-10.06-.69-1.57-1.69-1.75-3.2-.99-2.05,1.04-4.02,2.18-5.81,3.61-.64,.51-1.76,.97-1.49,1.86,.25,.83,1.37,.88,2.25,.86,3.59,2.56,7.87,3.14,12.52,4.72Zm227.74,10.82c-.37-.88-.71-1.79-1.2-2.61-.86-1.44-1.32-3.86-3.01-3.83-1.49,.03-2.68,1.98-3.45,3.58-2.22,2.31-3.59,5.18-5.46,8.22,3.26,.43,6.26,.32,9.27-.08,5.92,.1,6.03-.04,3.85-5.29Zm26.85-5.19c.02-3.43,.14-6.87-.95-10.48-2.31,1.56-3.74,3.61-4.9,5.89-3.11,3.38-5.03,7.54-7.25,11.94,2.64-.72,5.28-1.43,7.92-2.15q5.15-.25,5.19-5.2Zm-100.2-61.34c.72-1.4,1.21-2.91,2-4.84-4.67,1.14-8.83,2.15-12.99,3.16-1.12,.22-2.24,.45-3.57,.71,1.47,2.87,3.28,5.18,5.74,6.92,1.06,.75,2.22,1.65,3.62,.58,3-1.17,3.9-4.03,5.2-6.54Zm-63.55,157.28c.98,.71,1.71-.11,2.42-.38,8.31-3.19,16.88-4.41,25.72-3.26,1.8,.23,3-.04,3.63-1.81,1.95-1.47,.48-1.98-.74-2.32-4.63-1.33-9.37-1.07-14.03-.49-4.66,.58-9.24,1.76-13.88,2.54-1.57,.26-2.07,1.15-2.24,2.5-.76,.96-.56,2.16-.88,3.24Zm90.38-95.51c4.12,2.04,7.83,4.18,12,5.35,1.79,1.15,3.84,1.55,6.13,2.27-.72-4.63-1.89-8.89-3.79-12.91-1.64-3.48-2.34-3.6-5.87-1.45-3.25,1.56-5.66,4.14-8.48,6.75ZM104.57,473.05c-3.12,2.18-6.12,4.28-9.12,6.38-4.42,2.12-8.82,4.26-13.64,5.35-.65,.15-1.5,.27-1.37,1.15,.15,.99,1.09,.55,1.66,.54,4.86-.05,9.45-1.54,14.05-2.89,2.77-.81,5.44-1.93,8.22-2.69,2.32-.63,2.77-1.75,1.52-3.7-.06-1.46-.83-2.67-1.32-4.14Zm295.77-168.85c.66-1.18,.14-1.61-.91-1.72-4.2-.43-8.4-1.34-12.64-.26-1.03,.08-2.46-.16-2.85,.83-.38,.98,.9,1.75,1.53,2.53,1.94,2.36,3.96,4.65,6.52,6.39,1.09,.74,2.21,1.27,3.2-.18,2.5-2,3.64-4.91,5.14-7.59Zm-253.23,9.41c-3.87,1.9-7.28,4.5-10.8,7.33,.89,.99,1.77,1.71,3.12,1.64,3.01,2.62,6.88,3.77,10.18,5.9,1.23,.79,1.45-.04,1.51-1.07,.23-3.93,.95-7.85-.06-11.77-.83-3.23-1.09-3.43-3.95-2.02Zm-28.45,.11c-1.63-4.97-2.89-9.71-5.79-13.81-.54-2.2-1.96-1.95-3.19-.86-2.86,2.55-5.42,5.49-7.02,8.92-.97,2.09,1.61,1.38,2.64,1.86,4.29,1.25,8.58,2.5,13.35,3.89Zm64.1,36.1c.56-4.84-.16-9.05-1.12-13.24-.79-2.4-2.74-2.06-4.5-1.74-2.44,.44-4.74,1.39-6.94,2.51-.9,.46-2.42,.62-2.44,1.69-.03,1.24,1.49,1.53,2.48,2.05,4.07,2.83,8.13,5.66,12.53,8.73Zm-82.25,118.59c.74-.56,.99-1.14,.34-1.92-.06-.07-.11-.16-.17-.24-1.52-1.99-2.97-4.82-5.21-5.09-1.95-.23-2.74,3.01-3.91,4.78-2.38,3.59-4.91,7.12-6.74,11.05-.01,.19-.02,.38-.03,.58,.12-.08,.24-.17,.36-.25,5.78-1.83,10.61-5.31,15.36-8.91Zm211.26,17.52c.79,1.14,1.48,1.56,2.71,.43,4.28-3.97,8.85-7.63,12.83-11.93,1.54-1.4,3.08-2.79,5.14-4.66-8.97-.58-16.74,1.25-24.26,4.55-1,.44-.79,1.18-.56,1.92,.33,1.09,.71,2.17,1.07,3.25,.56,2.37,1.71,4.44,3.08,6.43Zm109.88-179.41c-2.93-.49-5.86-.97-9.29-1.54,2.74,6.28,5.25,12.15,9.86,16.8,.9,.91,1.92,2.03,3.45,.93,3.07-1.58,4.63-4.52,6.37-7.24,1.59-2.5,2.95-5.15,4.62-8.08-4.62-.23-8.87-.44-13.11-.65-.27-.06-.55-.11-.82-.17-.36-.01-.71-.03-1.07-.04Zm-131.59,8.52c2.05,3.79,5.45,6.39,8.5,9.25,5.54,5.21,11.62,9.7,19.38,12.92-2.39-6.15-2.15-11.87-.43-17.59,3.1-5.75,3.1-5.69-3.34-5.78-8.36-.13-16.61-1.21-24.77-3.01-.65-.14-1.3-.31-1.97-.41-.26-.04-.55,.08-.98,.16,.54,1.67,1.61,2.84,2.88,3.87,.26,.2,.52,.4,.77,.6,0,0-.04,0-.04,0Zm161.55-10.76c3.13,4.52,6.14,8.83,10.74,11.71,1.39,.87,2.93,1.59,4.52,.29,2.49-1.71,3.71-4.37,4.94-6.96,2.11-4.43,3.62-9.08,5.08-14.45-5.37,2.28-10.52,3.81-15.32,6.28-3.36,.5-6.33,2.18-9.95,3.13Zm-203.93,47.41c.15-3.53-.5-7.06-1.29-10.52-.15-.68-.16-1.83-1.25-1.56-4.31,1.06-8.98,1.16-12.56,4.34-2.54,.22-3.01,1.59-2.17,3.78,2.2,5.7,5.49,10.8,9.3,15.46,2.04,2.49,3.27-.59,4.66-1.7,2.89-2.66,3.15-6.31,3.3-9.8Zm264.81-66.13c.27-.7,.43-1.45,.73-2.49-5.21,.43-9.96,1.76-14.58,3.62q-7.88,2.2-4.6,9.39c1.72,3.74,3.51,7.45,6.12,10.68,.76,.94,1.56,1.94,2.52,.16,4.87-6.39,7.02-14.02,9.8-21.36Zm-265.99-35.26c1.03-3.89,1.73-7.87,2.66-11.8,.24-1.02,.34-1.83-1.01-1.63-6.61,1.01-13.43,1.17-19.49,4.55-4.93,1.8-6.17,4.62-3.97,9.39,2.48,5.38,6.02,10.04,10.01,14.4,1.38,1.51,2.29,1.77,3.33-.24,.47-.91,1.6-1.42,1.68-2.61,4.06-3.01,5.58-7.49,6.79-12.06Zm-35.44,58.37c2.85,3.16,6.63,4.91,10.45,6.51,5.91,2.47,11.88,4.78,18.47,6.24-.7-2.45-1.41-4.5-2.56-6.38-1.09-3.28-2.11-6.58-3.28-9.84-1.47-4.09-2.34-8.31-3.06-12.57-.14-.84,.09-1.9-1.37-1.42-6.33,2.07-12.58,4.3-17.65,8.88-.65,.59-1.22,1.24-1.27,2.19-2.07,2.22-1.55,4.39,.26,6.4Zm102.7,92.9c7.45,2.88,15.01,5.52,21.33,10.66,.37,.3,.86,.52,1.13,.89,2.7,3.83,6.55,3.8,10.85,3.19-2.06-2.4-4.7-3.74-7.23-5.16-8.58-4.83-17.83-8.18-26.81-12.14-2.2-.97-4.38-2-6.54-3.05-1.43-.7-2.71-.7-4.37,.83,4.08,1.69,7.83,3.32,11.64,4.79Zm20.74-88.7c1.79,2.03,3.39,4.37,5.86,4.03,2.34-.32,3.19-3,4.63-5.42-3.76,.5-6.94,.91-10.49,1.38Zm5.96,29.27c-1.87-4.2-2.72-4.37-5.9-1.2,1.9,.8,3.86,.9,5.9,1.2Z"/><path class="cls-11" d="M200.44,418.92c-8.79-12.06-17.89-23.87-27.82-35-16.03-17.97-33.4-34.44-54.34-46.66-11.98-6.99-24.74-12.09-38.6-13.96-3.42-.46-6.9-.51-10.35-.74,.57-.85,1.32-1.47,2.34-1.73,.21-.16,.42-.33,.64-.49,0,0,.1-.15,.1-.15l.17,.05c2.68-.19,5.36-.42,8.05-.56,12.57-.67,24.44,2.38,36.04,6.81,20.5,7.83,38.78,19.61,56.75,31.94,6.59,4.52,12.95,9.47,19.9,13.35,14.6,8.13,29.79,10.73,45.43,2.49,.76-.4,1.61-.67,2.12-1.44,1.01-.54,2.03-1.08,3.04-1.62,6.3-3.4,9.88-8.62,10.84-15.75,.99-7.36-.65-14.36-2.6-21.32-3.06-10.96-7.8-21.33-11.4-32.1-4.14-12.38-4.12-24.38,4.95-34.87,4.83-5.58,7.49-12.03,8.94-19.12,.58-2.83,1.13-5.67,1.85-8.46,2.03-7.94,5.21-15.3,11.07-21.26,.18-.21,.36-.41,.55-.62,0,0-.04,.02-.04,.02,2.82,.09,5.12-1.57,7.71-2.27,11.57-3.12,23.37-4.51,35.29-5.33,13.37-.92,26.75-.95,40.13-1.21,10.54-.2,20.75-2.74,30.86-5.57,15.6-4.36,30.83-9.85,46.29-14.66,11.81-3.68,23.29-2.93,34.61,2.14,15.86,7.11,26.76,19.49,36.06,33.56,5.81,8.79,10.85,18.03,13.12,28.46,1.71,7.84,1.72,15.66-1.33,23.27-4.34,.91-8.65,1.89-12.87,3.27-13.21,4.31-25.9,9.97-38.86,14.92-10.11,3.86-20.31,6.7-31.28,5.68-6.93-.65-13.78-1.77-20.57-3.22-10.64-2.28-21.05-2.45-31.68,.64-12.39,3.61-25.01,6.37-37.87,7.95-25.54,3.15-50.24,1.23-73.23-11.59-2.07-1.16-4.04-1.06-5.24,1.1-1.19,2.14-.32,3.92,1.77,5.06,2.53,1.37,5.09,2.68,7.64,4.02,1.37,10.74,4.2,21.14,7.37,31.46,1.19,3.86,2.54,7.67,3.82,11.5-3.76,2.06-4.16,3.23-2.21,7.08,.86,1.7,1.88,3.33,2.85,4.97,2.88,4.92,7.15,8.67,10.83,12.92-.39,5.4-2.57,10.07-5.82,14.31-1.14-.6-1.78-1.7-2.63-2.6-1.53-1.62-3.33-2.07-5.09-.64-1.9,1.54-1.84,3.52-.23,5.27,1.8,1.96,3.76,3.79,5.64,5.67,.21,.17,.41,.34,.62,.5,0,0-.04-.06-.04-.06,.21,.21,.42,.41,.63,.62,0,0-.01-.06-.01-.06,1.58,3.67,4.75,5.64,8,7.52,8.87,5.12,18.51,8.65,27.54,13.45,5.83,3.09,11.39,6.49,15.75,11.55,1.05,1.22,2.35,2.31,2.45,4.11-1.03-.17-1.6-1-2.31-1.61-1.26-1.08-2.48-2.14-4.34-1.43-1.89,.73-2.34,2.27-2.57,4.09-.43,3.39-.79,6.81-2.17,10-1.19-1.67-.82-3.69-1.19-5.53-.78-3.83-2.09-7.43-4.15-10.7-1.65-2.63-3.83-4.76-7.01-5.67-14.02-3.98-27.14-10.25-40.4-16.15-5.88-2.62-10.77-.11-11.63,6.1-2.49,3.33-5.38,2.33-8.64,1.18-7.3-2.58-14.87-2.93-22.52-1.92-10.31,1.36-19.59,5.44-28.46,10.63-1.07-.1-1.68-.81-2.27-1.62ZM482.82,208.46c-2.9-4.29-6.41-7.86-11.52-9.42-5.37-1.63-10.09,.79-10.19,5.39-.61,1.97,.23,3.84,.43,5.75-.39,2.62,1.26,4.62,2.55,6.43,2.99,4.2,6.82,7.54,12.08,8.79,6.9,1.64,11.57-2.64,10.16-9.56-.45-2.21-1.18-4.47-2.81-6.23l.04,.06c-.25-.4-.49-.8-.74-1.2Zm-203.58,51.61c2.62,.2,4.22-1.35,4.42-4.52,.25-4.01,1.53-7.55,4.47-10.37,6.43-6.17,16.34-3.2,19.32,5.75,.65,1.95,.59,4.01,1.01,5.98,.47,2.19,1.91,3.31,4.18,3.15,2.13-.15,3.52-1.38,3.57-3.48,.19-8.08-2.8-14.77-9.5-19.39-6.36-4.39-13.26-4.69-19.98-.92-7.23,4.06-10.55,10.7-11.07,17.66-.06,4.28,1.15,5.95,3.6,6.14Z"/><path class="cls-6" d="M202.71,420.54c-1.07-.1-1.68-.81-2.27-1.62-8.79-12.06-17.89-23.87-27.82-35-16.03-17.97-33.4-34.44-54.34-46.66-11.98-6.99-24.74-12.09-38.6-13.96-3.42-.46-6.9-.51-10.35-.74-1.85,1.22-2.48,2.28,.37,2.9,3.59-.23,7.12,.29,10.63,.91,18.12,3.24,32.88,12.69,45.95,25.14,15.18,14.46,24.19,32.18,27.65,52.79,1.13,6.73,2.65,13.39,2.94,20.24,0,0-.03-.04-.03-.04,.39,.12,.53,.28,.12,.56,8.92,11.03,18.97,20.58,31.99,26.88,11.96,5.79,23.81,11.9,34.44,20.05,8.66,6.65,16.53,14.18,24.35,21.76,6.37,6.18,12.67,12.42,20.41,16.96,4.99,2.93,9.76,3.4,14.88,0,8.22-5.44,15.94-11.5,23.54-17.74,1.16-.95,1.49-1.64,.47-3.03-1.47-2.01-2.6-4.27-3.88-6.42-1.21,.58-2.51,1.04-3.62,1.76-4.21,2.73-8.87,4.12-13.75,4.99-5.45,.97-10.2-1.79-12.07-7.02-1.27-3.53-2.58-7.05-3.92-10.55-4.34-11.3-9.73-22.03-17.91-31.1-10.74-11.91-24.32-17.48-40.23-17.73-3.54,1.5-6.66,3.72-9.89,5.77-2.57,1.63-4.49,1.52-5.84-.33-1.34-1.85-.75-3.76,1.76-5.51,1.64-1.14,3.35-2.2,5.02-3.3Z"/><path class="cls-3" d="M268.63,303.96c1.37,10.74,4.2,21.14,7.37,31.46,1.19,3.86,2.54,7.67,3.82,11.5,2.12,.59,3.22,2.07,4.18,4.02,4.08,8.35,10.55,14.67,17.82,20.23,14.55,11.13,31.02,18.61,48.07,24.87,19.22,7.06,38.95,12.24,59.27,15.02,10.62,1.45,21.17,.78,31.67-1.19,9.45-1.77,16.57-7.41,23.09-14.02,.26-.27,.52-.53,.77-.8h-.16s.02,.17,.03,.17c.24-.23,.49-.47,.73-.7h-.15s.02,.14,.02,.14c.11-.54,.51-.74,.99-.86,0,0,.03-.03,.03-.03,.12-1.47-.56-1.5-1.77-1.19-2.69,.7-5.42,1.27-8.15,1.82-6.43,1.3-12.92,1.79-19.48,1.89-4.99,.07-9.93-.14-14.76-1.41-7.75-2.04-15.04-5.34-22.29-8.65-10.61-4.85-21.04-10.12-30.57-16.87-11.17-7.92-23.31-13.32-36.71-16.17-6.27-1.33-12.75-1.77-18.71-4.56-10.84-5.07-20.04-12.21-27.42-21.57-2.95-3.75-5.33-7.95-6.58-12.66,0,0,.04,.07,.04,.07-.2-.27-.41-.53-.61-.8,.05-.2-.03-.33-.23-.39-.14-.16-.28-.33-.42-.49l-.03-.05c-.17-.21-.35-.43-.52-.64,0,0,.04,.04,.04,.04-.19-.25-.38-.51-.58-.76-1.76-3.85-4.53-6.51-8.77-7.42Z"/><path class="cls-1" d="M268.07,217.72c2.82,.09,5.12-1.57,7.71-2.27,11.57-3.12,23.37-4.51,35.29-5.33,13.37-.92,26.75-.95,40.13-1.21,10.54-.2,20.75-2.74,30.86-5.57,15.6-4.36,30.83-9.85,46.29-14.66,11.81-3.68,23.29-2.93,34.61,2.14,15.86,7.11,26.76,19.49,36.06,33.56,5.81,8.79,10.85,18.03,13.12,28.46,1.71,7.84,1.72,15.66-1.33,23.27,5.43-.28,8.33-2.92,9.32-8.42,.87-4.86,.29-9.66-.91-14.34-4.58-17.89-12.45-34.25-24.1-48.58-17.56-21.6-40.23-27.96-66.91-21.42-13.3,3.26-26.11,8.12-39.18,12.12-18.48,5.66-37.27,8.77-56.66,8.65-14.36-.08-28.77,.05-42.91,3.12-7.97,1.73-15.56,4.35-21.4,10.47Z"/><path class="cls-11" d="M211.65,423.92c15.91,.24,29.49,5.82,40.23,17.73,8.18,9.07,13.57,19.8,17.91,31.1,1.35,3.5,2.66,7.02,3.92,10.55,1.88,5.23,6.62,7.99,12.07,7.02,4.87-.87,9.54-2.27,13.75-4.99,1.12-.73,2.41-1.18,3.62-1.76-.62-1.92-1.25-3.84-1.87-5.76-1.1-.88-.45-2.16-.75-3.23,0,0,.08-.08,.08-.08-1.12-1.79-.43-3.77-.58-5.65-.08-1.03-.14-1.88-1.46-2.06-6.39-.88-10.28-5.09-13.72-10.1-2.47-3.6-3.52-7.92-6.18-11.4-10.13-13.25-23.18-22.02-39.43-26.02-3.65-.9-7.42-.82-11.07-1.56-5.86,1.13-11.41,3.12-16.53,6.21Z"/><path class="cls-11" d="M107.96,465.78c.31,.54,.63,1.09,.94,1.63,.16,.2,.33,.39,.49,.59,0,0-.06-.07-.06-.07,.2,.5,.41,1,.61,1.5l-.09,.17s.15,.12,.15,.12c.18,.3,.36,.59,.54,.89,0,0-.02,.21-.02,.21,.2,.42,.39,.83,.59,1.25,0,0-.06-.07-.06-.07,.21,.41,.42,.82,.63,1.23,0,0-.04-.07-.04-.07,1.48,1.74,2.85,.34,4.09-.28,5.43-2.71,10.9-2.83,16.44-.48,12.76,5.41,25.67,9.55,39.93,7.88,10.67-1.25,20.34-4.74,29.32-10.47,.91-.58,1.45-1.24,1.21-2.36-5.36-3.4-10.99-6.28-16.76-8.91-.22,.18-.42,.5-.65,.53-11.91,1.7-23.6,1.27-34.73-3.87-4.06-1.88-8.18-3.59-12.69-3.26-11.65,.84-21.08,6.67-29.83,13.85Z"/><path class="cls-6" d="M107.96,465.78c8.75-7.18,18.18-13.01,29.83-13.85,4.51-.33,8.63,1.39,12.69,3.26,11.12,5.14,22.82,5.57,34.73,3.87,.24-.03,.44-.35,.65-.53-.55-.38-1.06-.86-1.66-1.12-12.47-5.41-21.7-14.78-30.31-24.88-1.27-1.49-2.63-2.39-4.5-2.81-5.63-1.26-11.05-3.29-16.78-4.25-5.26-.88-9.58,.8-13.16,4.33-7.44,7.33-13.23,16.01-19.36,24.41-.75,1.03-.48,1.72,.37,2.45,3.03,2.59,5.25,5.87,7.49,9.12Z"/><path class="cls-10" d="M156.86,424.55c-.29-6.85-1.81-13.52-2.94-20.24-3.46-20.61-12.47-38.33-27.65-52.79-13.08-12.45-27.83-21.9-45.95-25.14-3.51-.63-7.04-1.14-10.63-.91,9.66,3.47,18.72,8.04,26.97,14.21,15.7,11.74,27.46,26.63,35.9,44.24,4.7,9.81,9.1,19.78,15.06,28.93,2.72,4.17,5.32,8.47,9.23,11.71Z"/><path class="cls-2" d="M279.72,314.39c1.26,4.71,3.63,8.91,6.58,12.66,7.38,9.36,16.58,16.5,27.42,21.57,5.96,2.79,12.44,3.23,18.71,4.56,13.4,2.84,25.54,8.25,36.71,16.17,9.53,6.76,19.96,12.02,30.57,16.87,7.26,3.32,14.54,6.62,22.29,8.65,4.83,1.27,9.77,1.48,14.76,1.41,6.56-.09,13.05-.59,19.48-1.89,2.73-.55,5.46-1.12,8.15-1.82,1.22-.32,1.9-.28,1.77,1.19,3.72-3.02,7.08-6.36,10.04-10.84-5.66,0-10.48,1.2-15.24,2.61-16.06,4.76-32.17,5.74-48.36,.68-11.78-3.68-22.4-9.68-32.67-16.37-6.46-4.2-12.86-8.49-19.42-12.52-9.1-5.58-19.22-8.51-29.7-9.64-13.97-1.5-25.37-7.9-35.66-16.92-5.67-4.97-10.54-10.68-15.43-16.38Z"/><path class="cls-1" d="M72.57,320.24c2.68-.19,5.36-.42,8.05-.56,12.57-.67,24.44,2.38,36.04,6.81,20.5,7.83,38.78,19.61,56.75,31.94,6.59,4.52,12.95,9.47,19.9,13.35,14.6,8.13,29.79,10.73,45.43,2.49,.76-.4,1.61-.67,2.12-1.44-18.16,4.87-34.41-.61-50-9.34-11.62-6.51-22.04-14.89-33.4-21.81-17.14-10.45-34.52-20.37-54.43-24.69-7.9-1.71-15.82-2.29-23.71,.11-2.4,.73-4.77,1.52-6.76,3.14Z"/><path class="cls-6" d="M326.7,442.59c-1.19-1.67-.82-3.69-1.19-5.53-.78-3.83-2.09-7.43-4.15-10.7-1.65-2.63-3.83-4.76-7.01-5.67-14.02-3.98-27.14-10.25-40.4-16.15-5.88-2.62-10.77-.11-11.63,6.1,1.52,0,2.75,.76,3.99,1.52,11.7,7.22,24.19,12.2,38.02,13.31,2.59,.21,5.19,.29,7.78-.07,4.33-.59,5.09-.18,6.69,3.98,1.7,4.4,3.52,8.75,6.07,12.74,.33,.52,.74,2.3,1.82,.45Z"/><path class="cls-1" d="M228.18,417.71c3.66,.74,7.42,.66,11.07,1.56,16.24,4,29.3,12.77,39.43,26.02,2.66,3.48,3.71,7.8,6.18,11.4,3.44,5.01,7.32,9.22,13.72,10.1,1.32,.18,1.38,1.03,1.46,2.06,.15,1.89-.55,3.87,.58,5.65,0-3.47-.08-6.95,.98-10.32,.35-1.11,.18-1.79-1.16-2.03-6.07-1.06-9.8-5.08-12.49-10.24-4.09-7.86-9.22-14.93-15.71-20.97-11.31-10.51-24.39-16.04-40.09-14.01-1.33,.17-2.65,.51-3.97,.78Z"/><path class="cls-15" d="M237.43,315.05c-1.09-3.28-2.11-6.58-3.28-9.84-1.47-4.09-2.34-8.31-3.06-12.57-.14-.84,.09-1.9-1.37-1.42-6.33,2.07-12.58,4.3-17.65,8.88-.65,.59-1.22,1.24-1.27,2.19,2.94,1.6,5.41,3.9,8.41,5.45,5.84,3.03,12.09,5,18.21,7.32Z"/><path class="cls-15" d="M239.71,262.38c4.06-3.01,5.58-7.49,6.79-12.06,1.03-3.89,1.73-7.87,2.66-11.8,.24-1.02,.34-1.83-1.01-1.63-6.61,1.01-13.43,1.17-19.49,4.55,.2,5.13,2.85,9.23,5.52,13.35,1.7,2.64,4.22,4.67,5.53,7.58Z"/><path class="cls-1" d="M202.62,467.44c.25,1.12-.3,1.78-1.21,2.36-8.97,5.73-18.65,9.22-29.32,10.47-14.26,1.67-27.17-2.46-39.93-7.88-5.53-2.35-11.01-2.22-16.44,.48-1.23,.62-2.61,2.01-4.09,.28,.07,.85,.1,1.71,.23,2.56,.17,1.05,.7,1.53,1.77,.92,8.5-4.85,16.64-2.57,24.83,1.08,17.23,7.69,34.61,8.24,52.06,.69,5.41-2.34,10.32-5.51,15.12-9.33-.95-.95-1.99-1.29-3.04-1.63Z"/><path class="cls-15" d="M290.06,315.05c2.05,3.79,5.45,6.39,8.5,9.25,5.54,5.21,11.62,9.7,19.38,12.92-2.39-6.15-2.15-11.87-.43-17.59-4.1-.34-8.19-.77-12.28-1.34-5.15-.71-10.05-2.46-15.17-3.25Z"/><path class="cls-4" d="M291.28,371.9c-.39,5.4-2.57,10.07-5.82,14.31,2.19,2.65,5.19,4.21,7.99,6.03,.64,.42,1.16,.43,1.83,0,4.63-2.95,9.62-5.09,15.68-6.45-5.25-3.32-9.9-6.27-14.24-9.69-1.8-1.42-3.32-3.21-5.44-4.21Z"/><path class="cls-1" d="M284.34,394.91c1.58,3.67,4.75,5.64,8,7.52,8.87,5.12,18.51,8.65,27.54,13.45,5.83,3.09,11.39,6.49,15.75,11.55,1.05,1.22,2.35,2.31,2.45,4.11,.27,.27,.59,.81,.8,.77,.81-.17,.51-.9,.43-1.38-.65-3.81-2.42-7.06-5.03-9.87-3.59-3.86-7.94-6.69-12.74-8.76-4.85-2.09-9.81-3.9-14.72-5.85-7.86-3.12-15.38-6.93-22.48-11.53Z"/><path class="cls-5" d="M502.69,306.94c4.87-6.39,7.02-14.02,9.8-21.36,.27-.7,.43-1.45,.73-2.49-5.21,.43-9.96,1.76-14.58,3.62-.28,7.07,1.15,13.8,4.04,20.23Z"/><path class="cls-15" d="M244.39,361.5c2.89-2.66,3.15-6.31,3.3-9.8,.15-3.53-.5-7.06-1.29-10.52-.15-.68-.16-1.83-1.25-1.56-4.31,1.06-8.98,1.16-12.56,4.34,.36,.43,.81,.81,1.07,1.3,3.11,5.72,6.72,11.11,10.73,16.24Z"/><path class="cls-14" d="M237.43,315.05c-6.12-2.32-12.37-4.29-18.21-7.32-3-1.55-5.47-3.85-8.41-5.45-2.07,2.22-1.55,4.39,.26,6.4,2.85,3.16,6.63,4.91,10.45,6.51,5.91,2.47,11.88,4.78,18.47,6.24-.7-2.45-1.41-4.5-2.56-6.38Z"/><path class="cls-5" d="M466.88,316.29c2.49-1.71,3.71-4.37,4.94-6.96,2.11-4.43,3.62-9.08,5.08-14.45-5.37,2.28-10.52,3.81-15.32,6.28,.3,3.56,1.38,6.93,2.56,10.26,.63,1.76,.93,3.76,2.75,4.87Z"/><path class="cls-14" d="M239.71,262.38c-1.31-2.91-3.82-4.95-5.53-7.58-2.66-4.12-5.32-8.22-5.52-13.35-4.93,1.8-6.17,4.62-3.97,9.39,2.48,5.38,6.02,10.04,10.01,14.4,1.38,1.51,2.29,1.77,3.33-.24,.47-.91,1.6-1.42,1.68-2.61Z"/><path class="cls-14" d="M290.06,315.05c5.12,.79,10.02,2.53,15.17,3.25,4.08,.57,8.17,1,12.28,1.34,3.1-5.75,3.1-5.69-3.34-5.78-8.36-.13-16.61-1.21-24.77-3.01-.65-.14-1.3-.31-1.97-.41-.26-.04-.55,.08-.98,.16,.54,1.67,1.61,2.84,2.88,3.87,.26,.2,.52,.4,.77,.6,0,0-.04,0-.04,0Z"/><path class="cls-5" d="M425.67,322.72c3.07-1.58,4.63-4.52,6.37-7.24,1.59-2.5,2.95-5.15,4.62-8.08-4.62-.23-8.87-.44-13.11-.65-.32,.17-.6,.13-.82-.17-.36-.01-.71-.03-1.07-.04,.41,5.63,1.18,11.16,4.02,16.19Z"/><path class="cls-15" d="M302.13,396.8c4.08,1.69,7.83,3.32,11.64,4.79,7.45,2.88,15.01,5.52,21.33,10.66,.37,.3,.86,.52,1.13,.89,2.7,3.83,6.55,3.8,10.85,3.19-2.06-2.4-4.7-3.74-7.23-5.16-8.58-4.83-17.83-8.18-26.81-12.14-2.2-.97-4.38-2-6.54-3.05-1.43-.7-2.71-.7-4.37,.83Z"/><path class="cls-9" d="M308.69,479.51c.56,2.37,1.71,4.44,3.08,6.43,.79,1.14,1.48,1.56,2.71,.43,4.28-3.97,8.85-7.63,12.83-11.93-6.69-.1-12.99,1.25-18.61,5.07Z"/><path class="cls-9" d="M85.15,477.33c5.78-1.83,10.6-5.31,15.36-8.91,.74-.56,.99-1.14,.34-1.92-.06-.07-.11-.16-.17-.24-1.52-1.99-2.97-4.82-5.21-5.09-1.95-.23-2.74,3.01-3.91,4.78-2.38,3.59-4.91,7.12-6.74,11.05,.11,.11,.22,.21,.32,.33Z"/><path class="cls-8" d="M466.88,316.29c-1.82-1.11-2.12-3.11-2.75-4.87-1.18-3.33-2.26-6.7-2.56-10.26-3.36,.5-6.33,2.18-9.95,3.13,3.13,4.52,6.14,8.83,10.74,11.71,1.39,.87,2.93,1.59,4.52,.29Z"/><path class="cls-4" d="M308.69,479.51c5.62-3.82,11.92-5.16,18.61-5.07,1.54-1.4,3.08-2.79,5.14-4.66-8.97-.58-16.74,1.25-24.26,4.55-1,.44-.79,1.18-.56,1.92,.33,1.09,.71,2.17,1.07,3.25Z"/><path class="cls-8" d="M425.67,322.72c-2.84-5.02-3.61-10.56-4.02-16.19-2.93-.49-5.86-.97-9.29-1.54,2.74,6.28,5.25,12.15,9.86,16.8,.9,.91,1.92,2.03,3.45,.93Z"/><path class="cls-14" d="M244.39,361.5c-4.01-5.13-7.62-10.52-10.73-16.24-.26-.48-.71-.87-1.07-1.3-2.54,.22-3.01,1.59-2.17,3.78,2.2,5.7,5.49,10.8,9.3,15.46,2.04,2.49,3.27-.59,4.66-1.7Z"/><path class="cls-8" d="M502.69,306.94c-2.9-6.44-4.33-13.16-4.04-20.23q-7.88,2.2-4.6,9.39c1.72,3.74,3.51,7.45,6.12,10.68,.76,.94,1.56,1.94,2.52,.16Z"/><path class="cls-15" d="M170.23,341.11c4.07,2.83,8.13,5.66,12.53,8.73,.56-4.84-.16-9.05-1.12-13.24-4.39,0-7.63,2.95-11.41,4.51Z"/><path class="cls-15" d="M105.31,309.84c4.29,1.25,8.58,2.5,13.35,3.89-1.63-4.97-2.89-9.71-5.79-13.81-2.67,3.19-5.68,6.12-7.56,9.92Z"/><path class="cls-15" d="M139.43,322.58c3.01,2.62,6.88,3.77,10.18,5.9,1.23,.79,1.45-.04,1.51-1.07,.23-3.93,.95-7.85-.06-11.77-1.28,.12-2.33,.81-3.35,1.46-2.79,1.78-5.52,3.64-8.27,5.47Z"/><path class="cls-5" d="M395.2,311.8c2.5-2,3.64-4.91,5.14-7.59,.66-1.18,.14-1.61-.91-1.72-4.2-.43-8.4-1.34-12.64-.26-.15,.82,.16,1.5,.69,2.07,2.44,2.63,4.67,5.48,7.71,7.5Z"/><path class="cls-2" d="M95.45,479.43c-4.42,2.12-8.82,4.26-13.64,5.35-.65,.15-1.5,.27-1.37,1.15,.15,.99,1.09,.55,1.66,.54,4.86-.05,9.45-1.54,14.05-2.89,2.77-.81,5.44-1.93,8.22-2.69,2.32-.63,2.77-1.75,1.52-3.7-2.62,.82-5.25,1.62-7.86,2.48-.93,.31-1.8,.71-2.58-.25Z"/><path class="cls-5" d="M409.46,377.52c1.79,1.15,3.84,1.55,6.13,2.27-.72-4.63-1.89-8.89-3.79-12.91-1.64-3.48-2.34-3.6-5.87-1.45,1.67,3.89,3.03,7.87,3.52,12.1Z"/><path class="cls-4" d="M307.96,464.46c-.76,.96-.56,2.16-.88,3.24,.98,.71,1.71-.11,2.42-.38,8.31-3.19,16.88-4.41,25.72-3.26,1.8,.23,3-.04,3.63-1.81-5.59-1.21-11.22-.67-16.83-.32-4.77,.3-9.36,1.76-14.06,2.53Z"/><path class="cls-5" d="M365.43,316.95c3-1.17,3.9-4.03,5.2-6.54,.72-1.4,1.21-2.91,2-4.84-4.67,1.14-8.83,2.15-12.99,3.16,0,1.13,.69,1.94,1.34,2.75,1.47,1.83,2.97,3.64,4.45,5.46Z"/><path class="cls-8" d="M409.46,377.52c-.49-4.23-1.85-8.21-3.52-12.1-3.25,1.56-5.66,4.14-8.48,6.75,4.12,2.04,7.83,4.18,12,5.35Z"/><path class="cls-5" d="M465.64,376.94q5.15-.25,5.19-5.2c.02-3.43,.14-6.87-.95-10.48-2.31,1.56-3.74,3.61-4.9,5.89,1.54,3.17,.39,6.53,.67,9.79Z"/><path class="cls-2" d="M307.96,464.46c4.7-.78,9.29-2.23,14.06-2.53,5.61-.36,11.24-.89,16.83,.32,1.95-1.47,.48-1.98-.74-2.32-4.63-1.33-9.37-1.07-14.03-.49-4.66,.58-9.24,1.76-13.88,2.54-1.57,.26-2.07,1.15-2.24,2.5Z"/><path class="cls-5" d="M440.13,382.22c5.92,.1,6.03-.04,3.85-5.29-.37-.88-.71-1.79-1.2-2.61-.86-1.44-1.32-3.86-3.01-3.83-1.49,.03-2.68,1.98-3.45,3.58,2.34,2.22,2.82,5.3,3.81,8.15Z"/><path class="cls-15" d="M203.72,361.39c3.59,2.56,7.87,3.14,12.52,4.72-1.29-3.93-2.25-7.2-4.27-10.06-3.25,1-5.31,3.85-8.25,5.34Z"/><path class="cls-5" d="M382.1,362.69c1.63,1.14,3.26,2.27,5.3,3.7,0-4.73-.38-8.95-1.91-12.84-1.3-3.31-2.97-.28-4.45,.28,.77,2.9,.96,5.88,1.06,8.86Z"/><path class="cls-14" d="M139.43,322.58c2.75-1.83,5.49-3.69,8.27-5.47,1.03-.66,2.08-1.35,3.35-1.46-.83-3.23-1.09-3.43-3.95-2.02-3.87,1.9-7.28,4.5-10.8,7.33,.89,.99,1.77,1.71,3.12,1.64Z"/><path class="cls-8" d="M465.64,376.94c-.28-3.26,.87-6.61-.67-9.79-3.11,3.38-5.03,7.54-7.25,11.94,2.64-.72,5.28-1.43,7.92-2.15Z"/><path class="cls-8" d="M440.13,382.22c-.99-2.84-1.47-5.93-3.81-8.15-2.22,2.31-3.59,5.18-5.46,8.22,3.26,.43,6.26,.32,9.27-.08Z"/><path class="cls-15" d="M76.94,309.83c2.43-.39,4.86-.82,7.29-1.17,1.56-.22,1.41-.99,.66-1.91-1.86-2.27-3.46-4.81-6.22-6.18-1.23,2.97-1.24,6.16-1.74,9.26Z"/><path class="cls-14" d="M105.31,309.84c1.87-3.8,4.89-6.73,7.56-9.92-.54-2.2-1.96-1.95-3.19-.86-2.86,2.55-5.42,5.49-7.02,8.92-.97,2.09,1.61,1.38,2.64,1.86Z"/><path class="cls-14" d="M170.23,341.11c3.78-1.56,7.02-4.5,11.41-4.51-.79-2.4-2.74-2.06-4.5-1.74-2.44,.44-4.74,1.39-6.94,2.51-.9,.46-2.42,.62-2.44,1.69-.03,1.24,1.49,1.53,2.48,2.05Z"/><path class="cls-14" d="M76.94,309.83c.49-3.1,.51-6.3,1.74-9.26-2.72-1.78-3.21-1.54-4.13,1.35-.83,2.6-.83,5.37-.71,7.9,.11,2.25,2,.37,3.1,0Z"/><path class="cls-8" d="M345,311.51c-3.76,.5-6.94,.91-10.49,1.38,1.79,2.03,3.39,4.37,5.86,4.03,2.34-.32,3.19-3,4.63-5.42Z"/><path class="cls-8" d="M382.1,362.69c-.1-2.98-.29-5.96-1.06-8.86-2.2,.99-3.89,2.64-5.79,4.34,2.23,1.72,4.41,3.3,6.85,4.51Z"/><path class="cls-5" d="M356.64,347c2.16,1.94,5.04,2.62,7.8,4.62-.53-3.3-1.2-5.97-3.06-8.23-1.97,.69-3.65,1.76-4.74,3.61Z"/><path class="cls-8" d="M395.2,311.8c-3.04-2.01-5.27-4.87-7.71-7.5-.54-.58-.85-1.26-.69-2.07-1.03,.08-2.46-.16-2.85,.83-.38,.98,.9,1.75,1.53,2.53,1.94,2.36,3.96,4.65,6.52,6.39,1.09,.74,2.21,1.27,3.2-.18Z"/><path class="cls-8" d="M365.43,316.95c-1.48-1.82-2.98-3.63-4.45-5.46-.65-.81-1.34-1.62-1.34-2.75-1.12,.22-2.24,.45-3.57,.71,1.47,2.87,3.28,5.18,5.74,6.92,1.06,.75,2.22,1.65,3.62,.58Z"/><path class="cls-4" d="M95.45,479.43c.78,.96,1.66,.55,2.58,.25,2.61-.86,5.24-1.66,7.86-2.48-.06-1.46-.83-2.67-1.32-4.14-3.12,2.18-6.12,4.28-9.12,6.38Z"/><path class="cls-14" d="M203.72,361.39c2.94-1.49,5-4.34,8.25-5.34-.69-1.57-1.69-1.75-3.2-.99-2.05,1.04-4.02,2.18-5.81,3.61-.64,.51-1.76,.97-1.49,1.86,.25,.83,1.37,.88,2.25,.86Z"/><path class="cls-8" d="M356.64,347c1.09-1.85,2.77-2.92,4.74-3.61-.92-1.71-2.3-1.36-3.68-.78-1.66,.7-3.17,1.64-4.49,3.12,1.11,.8,2.16,1.32,3.43,1.26Z"/><path class="cls-8" d="M334.57,340.96c1.9,.8,3.86,.9,5.9,1.2-1.87-4.2-2.72-4.37-5.9-1.2Z"/><path class="cls-1" d="M300.54,474.57c.3,1.07-.35,2.35,.75,3.23-.21-1.09,.08-2.29-.75-3.23Z"/><path class="cls-2" d="M466.14,393.79c-.48,.12-.87,.33-.99,.86,.33-.29,.66-.57,.99-.86Z"/><path class="cls-1" d="M111.69,473.22c-.21-.41-.42-.82-.63-1.23,0,.52,0,1.04,.63,1.23Z"/><path class="cls-1" d="M111.12,472.06c-.2-.42-.39-.83-.59-1.25,.04,.49,.09,.98,.59,1.25Z"/><path class="cls-1" d="M109.95,469.44c-.2-.5-.41-1-.61-1.5-.02,.59,.11,1.12,.61,1.5Z"/><path class="cls-7" d="M278.74,426.61c-.23-.06-.65-.23-.67-.18-.2,.37,.16,.38,.38,.47,.1-.1,.2-.2,.3-.29Z"/><path class="cls-10" d="M156.95,425.07c.42-.28,.27-.45-.12-.56,.03,.19,.07,.38,.12,.56Z"/><path class="cls-8" d="M422.72,306.57c.22,.3,.5,.34,.82,.17-.27-.06-.55-.11-.82-.17Z"/><path class="cls-2" d="M277.41,311.38c.19,.25,.38,.51,.58,.76-.19-.25-.38-.51-.58-.76Z"/><path class="cls-1" d="M109.39,468c-.16-.2-.33-.39-.49-.59,.01,.32,.1,.58,.49,.59Z"/><path class="cls-2" d="M277.95,312.1c.17,.21,.35,.43,.52,.64-.17-.21-.35-.43-.52-.64Z"/><path class="cls-2" d="M464.68,395.04c-.26,.27-.51,.53-.77,.8,.26-.27,.51-.53,.77-.8Z"/><path class="cls-1" d="M110.54,470.61c-.18-.3-.36-.59-.54-.89,.18,.3,.36,.59,.54,.89Z"/><path class="cls-1" d="M283.73,394.35c.21,.21,.42,.41,.63,.62-.02-.4-.27-.56-.63-.62Z"/><path class="cls-2" d="M465.28,394.51c-.24,.23-.49,.47-.73,.7,.24-.23,.49-.47,.73-.7Z"/><path class="cls-1" d="M283.15,393.91c.21,.17,.41,.34,.62,.5-.21-.17-.41-.34-.62-.5Z"/><path class="cls-2" d="M278.5,312.79c.14,.16,.28,.33,.42,.49-.14-.16-.28-.33-.42-.49Z"/><path class="cls-2" d="M279.14,313.67c.2,.27,.41,.53,.61,.8-.2-.26-.41-.53-.61-.8Z"/><path class="cls-15" d="M290.1,315.06c-.26-.2-.51-.4-.77-.6,.26,.2,.51,.4,.77,.6Z"/><path class="cls-9" d="M84.83,477.01c-.01,.19-.02,.38-.03,.58,.12-.08,.24-.17,.36-.25-.11-.11-.21-.22-.32-.33Z"/><path class="cls-1" d="M71.67,320.83c.21-.16,.42-.33,.64-.49-.21,.16-.42,.33-.64,.49Z"/><path class="cls-1" d="M267.56,218.32c.18-.21,.36-.41,.55-.62-.18,.21-.36,.41-.55,.62Z"/><path class="cls-12" d="M275.64,253.93c-.06,4.28,1.15,5.95,3.6,6.14,2.62,.2,4.22-1.35,4.42-4.52,.25-4.01,1.53-7.55,4.47-10.37,6.43-6.17,16.34-3.2,19.32,5.75,.65,1.95,.59,4.01,1.01,5.98,.47,2.19,1.91,3.31,4.18,3.15,2.13-.15,3.52-1.38,3.57-3.48,.19-8.08-2.8-14.77-9.5-19.39-6.36-4.39-13.26-4.69-19.98-.92-7.23,4.06-10.55,10.7-11.07,17.66Z"/><path class="cls-12" d="M461.11,204.44c-.61,1.97,.23,3.84,.43,5.75,.68,1.14,1.26,2.35,2.05,3.39,3.71,4.87,8,8.75,14.75,8.13,2.65-5.57,2.04-10.08-2.76-14.42-3.99-3.6-8.16-6.63-14.47-2.84Z"/><path class="cls-13" d="M461.11,204.44c6.31-3.78,10.48-.76,14.47,2.84,4.81,4.34,5.42,8.85,2.76,14.42,3.79-.46,5.71-2.5,6-6.12,.17-2.08-.74-3.96-.82-5.98,0,0,.04,.06,.04,.06-.55-.21-.59-.74-.74-1.2-2.9-4.29-6.41-7.86-11.52-9.42-5.37-1.63-10.09,.79-10.19,5.39Z"/><path class="cls-1" d="M483.52,209.61c.09,2.02,.99,3.9,.82,5.98-.29,3.62-2.21,5.66-6,6.12-6.75,.63-11.04-3.26-14.75-8.13-.8-1.05-1.37-2.26-2.05-3.39-.39,2.62,1.26,4.62,2.55,6.43,2.99,4.2,6.82,7.54,12.08,8.79,6.9,1.64,11.57-2.64,10.16-9.56-.45-2.21-1.18-4.47-2.81-6.23Z"/><path class="cls-1" d="M482.82,208.46c.15,.46,.19,.99,.74,1.2-.25-.4-.49-.8-.74-1.2Z"/></svg>