<?xml version="1.0" encoding="UTF-8"?><svg id="Ebene_1" xmlns="http://www.w3.org/2000/svg" xmlns:xlink="http://www.w3.org/1999/xlink" viewBox="0 0 115.65 162.4"><defs><style>.cls-1{fill:none;stroke:#1d1d1b;stroke-linecap:round;stroke-miterlimit:10;stroke-width:3px;}.cls-2{fill:#fff;}.cls-3{fill:#1d1d1b;}.cls-4{fill:url(#Unbenannter_Verlauf_51);}</style><linearGradient id="Unbenannter_Verlauf_51" x1="80.72" y1="147.27" x2="3.87" y2="14.17" gradientUnits="userSpaceOnUse"><stop offset="0" stop-color="#ffef26"/><stop offset=".01" stop-color="#fee921"/><stop offset=".07" stop-color="#fdd70e"/><stop offset=".13" stop-color="#fdcb03"/><stop offset=".19" stop-color="#fdc800"/><stop offset=".49" stop-color="#f18f34"/><stop offset=".74" stop-color="#e95f32"/><stop offset="1" stop-color="#e3312d"/></linearGradient></defs><path class="cls-4" d="M39.61,137.9c-1.63-.26-3.11,1.2-3.45,1.54-5.18,5.13,.83,15.33-4.1,19.62-.23,.2-1.98,1.69-3.76,1.25-1.98-.49-2.88-3.11-3.25-4.26-2.82-8.59,3.14-16.78,.85-18.61-1.52-1.22-5.66,1.19-8.23,3.27-8.17,6.6-7.58,16.31-11.41,16.55-2.6,.17-4.89-4.2-5.66-6.44-1.68-4.91,.68-9.14,1.17-10.01,1.38-2.47,3.2-3.79,4.63-4.86,0,0,3.12-1.75,13.05-10.87,3.17-2.91,8.99-8.18,11.96-16.31,2.65-7.25,4.26-19.37-1.66-24.32-3.36-2.81-5.81-.44-13.67-3.22-2.52-.89-11.15-3.95-14.48-10.71-3.62-7.34,.16-16.69,3.95-17.08,4.76-.49,7.5,13.35,16.49,13.78,3.16,.15,6.79-1.37,8.89-3.4,2.06-1.99,2.38-4.28,2.58-5.34,3.64-19.31,2.01-23.46,5.6-29.17,4.98-7.91,11.98-6.5,12.51-12.03C52.47,8.46,33.87,1.73,30.29,.73c-.86-.24-2.53-.61-3.2,.17-1.15,1.34,1.65,4.91,.52,5.96-.44,.41-1.35,.34-1.8-.09-1.05-1-.04-4.48,1.28-5.87,2.04-2.15,7.01-1.62,39.82,14.92,8.47,4.27,11.8,6.65,14.23,10.2,5.16,7.54,4.2,17.41,3.95,19.92-.32,3.24-.78,4.18-.88,7.76-.09,3.28-.31,8.86,3.01,12.77,.64,.76,2.83,3.33,5.97,3.69,7.73,.88,12.22-12.61,17.31-11.48,3.8,.84,6.74,9.56,4.17,15.46-2.77,6.35-11.58,8.63-17.92,10.27-5.57,1.44-6.16,.55-8.21,1.93-6.78,4.57-6.61,18.69-3.31,29.15,4.34,13.77,13.23,17.85,11.06,22.04-2.36,4.55-15.32,4.27-24.29,1.86-5.71-1.54-9.69-4.88-14.5-3.07-3.06,1.15-4.84,3.66-5.48,4.68-4.33,6.96,1.3,14.08-3.22,19.24-.33,.38-2.16,2.46-4.06,2.09-1.95-.38-2.87-3.13-3.01-3.54-1.65-4.93,2.82-7.51,2.18-13.62-.33-3.12-1.96-6.91-4.31-7.29Z"/><ellipse class="cls-3" cx="50.9" cy="45.21" rx="5.69" ry="7.27"/><circle class="cls-2" cx="49.8" cy="41.99" r="2.62"/><circle class="cls-2" cx="52.42" cy="46.67" r="1.18"/><ellipse class="cls-3" cx="71.04" cy="45.21" rx="5.69" ry="7.27"/><circle class="cls-2" cx="69.94" cy="41.99" r="2.62"/><circle class="cls-2" cx="72.56" cy="46.67" r="1.18"/><path class="cls-1" d="M66.54,66.71c-6.61,8.11-12.93,0-12.93,0"/></svg>