<?xml version="1.0" encoding="utf-8"?>
<!-- Generator: Adobe Illustrator 26.5.1, SVG Export Plug-In . SVG Version: 6.00 Build 0)  -->
<svg version="1.1" id="Ebene_1" xmlns="http://www.w3.org/2000/svg" xmlns:xlink="http://www.w3.org/1999/xlink" x="0px" y="0px"
	 viewBox="0 0 477 469" style="enable-background:new 0 0 477 469;" xml:space="preserve">
<style type="text/css">
	.st0{fill:#E04A18;}
	.st1{fill:#F8BD9B;}
	.st2{fill:#F7B08B;}
	.st3{fill:#F1862C;}
	.st4{fill:#F8A81F;}
	.st5{fill:#9A6734;}
	.st6{fill:#815324;}
	.st7{fill:#B3804B;}
	.st8{fill:#FFFFFF;}
	.st9{fill:#FFCC07;}
	.st10{fill:#F7A820;}
	.st11{fill:#D09E6B;}
	.st12{fill:#E3B78B;}
</style>
<path class="st0" d="M279.7,285.3c10.4-2.1,20.9-2.7,31.5-2.6c8.8,0.1,17.5,1,26.2,2.1c0.1,0,0.1,0.1,0.3,0.2
	c-1.5,1.4-3,2.7-4.4,4.1c-12.2,11.3-24.1,22.9-35.9,34.6c-13.5,13.4-26.9,26.8-40.4,40.1c-15.3,15.1-30.9,29.9-47.2,44
	c-16.4,14.2-33.3,27.9-51.4,40c-13.7,9.2-28.6,15.4-44.8,18.7c-5.3,1.1-10.6,1.8-16,2c-0.9,0-1.9,0-2.8,0c-0.5,0-1.1-0.3-1.4,0.4
	h-5.2c-0.1-0.2-0.2-0.4-0.6-0.4c-1.2,0-2.3,0-3.4-0.1c-2.2,0-4.3-0.3-6.4-0.6c0.2-0.2,0.4-0.2,0.7-0.2c2.3-0.4,4.6-0.2,6.9-0.4
	c5.6-0.5,11.1-1.5,16.5-2.9c2.8-0.7,5.6-1.5,8.2-2.6c5.5,1.2,10.6,0.4,15.1-3c4.4-3.2,8.6-6.8,12.8-10.2c3.3-2.7,6.5-5.5,9.9-8
	c5.9-4.2,11.9-8.3,17.8-12.4c2.5-1.8,4.7-3.9,6-6.7c0.5-0.6,0.8-1.3,1-2c1.2-0.8,2.2-1.8,3.3-2.7c5.9-5,11.7-10.2,17.4-15.5
	c3.9-3.6,7.8-7.2,11.6-10.9c5.5-5.3,11-10.6,16.4-15.9c13-12.8,25.7-25.9,38.8-38.5c4.6-4.4,9.1-8.9,13.7-13.4
	c0.6-0.5,1.1-1.1,1.7-1.6c1-0.9,2-1.8,2.9-3c-0.6,0-1.1,0-1.5,0c-8-0.1-16,0-24,0.8c-1.9,0.2-3.9,0.4-5.8,0.5
	c-2.9,0.3-5.7,0.6-8.6,0.9c-2,0.2-4,0.5-6,0.7c0.1-0.2,0.2-0.4,0.4-0.5c5.2-3.9,9.9-8.5,14.4-13.2c2.4-2.4,4.6-5,6.9-7.5
	c1.2-0.1,2.2-1,3.2-1.5c5.9-3.1,11.7-6.5,17.3-10.1C276.5,287.2,278,286,279.7,285.3L279.7,285.3z"/>
<path class="st1" d="M0.3,387.4c-0.1,0-0.2,0-0.3,0c0-4.1,0-8.3,0-12.4c0.1,0,0.2,0,0.3,0C0.3,379.1,0.3,383.3,0.3,387.4z"/>
<path class="st2" d="M93.5,469c0.3-0.7,0.9-0.4,1.4-0.4c0.9-0.1,1.9,0,2.8,0c0,0.2,0,0.3,0,0.5L93.5,469L93.5,469z"/>
<path class="st2" d="M84.3,469c0-0.2,0-0.3,0-0.5c1.2,0,2.3,0.1,3.4,0.1c0.3,0,0.4,0.2,0.6,0.4H84.3z"/>
<path class="st0" d="M0.3,387.4c0-4.1,0-8.3,0-12.4c0.1-1.1,0.1-2.2,0.2-3.2c0.2-0.1,0.2-0.3,0-0.5c1.6-18.1,7.1-35.2,14.6-51.7
	c8.9-19.3,20.2-37.1,33.8-53.5c8-9.7,16.7-18.9,25.2-28.2c9.1-10,17.9-20.3,25.4-31.6c1.4-2.2,2.8-4.4,4.4-6.9
	c0.6,12.1-0.8,23.6-3.7,34.9c1.4-2.1,2.8-4.2,4.1-6.3c13-19.5,28.8-36.6,46.6-51.8c13.3-11.4,27.4-21.8,41.9-31.7
	c16.8-11.5,34-22.5,50.7-34.2c10.9-7.7,21.6-15.6,31.8-24.2c0.1-0.1,0.3-0.2,0.6-0.5c-2.8,12.4-7.7,23.7-15.6,33.6
	c0.7,0.2,0.9-0.2,1.1-0.5c13.4-12.5,28.3-22.8,44.2-31.8c13.7-7.7,27.9-14.3,42.1-21c17.7-8.3,35.3-16.9,51.6-27.8
	c6.2-4.2,12.1-8.6,17.9-13.4c0.3-0.2,0.5-0.7,1-0.5l0,0c-0.5,3.1-1.8,6-3,8.9c-1.1,2.5-2.5,4.9-4,7.2c0,0.1,0,0.1,0,0.2
	c0,0,0.1,0,0.1,0c0-0.1-0.1-0.1-0.1-0.2c0.5,0.3,0.8-0.2,1.1-0.4c7.9-4.4,15.2-9.5,22.4-14.9c7.7-5.7,15.3-11.5,23.5-16.3
	c5.6-3.3,11.4-6.1,17.6-8.2c0.4-0.1,0.8-0.2,1.4-0.4c-1.7,2.4-3.2,4.5-4.8,6.7c-7.3,10.6-13.5,21.8-19.4,33.1
	c-6,11.5-11.6,23.2-17.7,34.7c-9.1,17.1-19.2,33.4-32.5,47.6c-12.1,13-26.1,23.8-41.7,32.3c-0.1,0.1-0.3,0.2-0.6,0.4
	c1.2,0,2.1,0,3.1,0c14.7-0.6,29-3.6,43.1-7.7c9.8-2.8,19.4-6.3,28.8-10c0.4-0.1,0.7-0.4,1.2-0.3l0,0c-0.6,1-1.6,1.7-2.5,2.5
	c-9.8,9.5-18.8,19.9-27.4,30.5c-10.2,12.7-19.9,25.8-30.1,38.6c-9.5,12-19.5,23.5-30.6,34.1c-14.4,13.7-30.4,25.3-48.2,34.2
	c-5.3,2.7-10.7,5.2-16.2,7.3c-0.3-0.4,0.1-0.4,0.2-0.5c2.9-2.1,5.8-4.3,8.5-6.6c4.1-3.5,8-7.4,11.8-11.3c3-3.1,6-6.3,8.8-9.6
	c5.2-5.9,10.2-12.1,15-18.3c5.8-7.4,11.5-14.9,17.2-22.4c3.5-4.5,7-8.9,10.6-13.2c0.9-1.1,2.1-2,2.6-3.4c0.1,0,0.2-0.1,0.3-0.1
	c0,0-0.1-0.1-0.1-0.1c-0.1,0.1-0.2,0.1-0.3,0.2c-0.2,0-0.3,0-0.5,0.1c-7.3,2.1-14.6,4-22.1,5.3c-5.6,1-11.3,1.7-17,1.9
	c-5.8,0.1-11.5,0-17.2,0c-0.5,0-1.1-0.1-1.6,0.2c-0.1-0.5,0.2-0.9,0.4-1.3c0.9-1.8,1.9-3.5,2.8-5.3c0.3-0.6,0.5-1.2,1-1.7
	c0.2-0.1,0.3-0.1,0.5-0.1c4-2.2,8-4.4,12-6.7c7.2-4.1,13.8-9,20-14.4c3.3-2.9,6.6-5.9,9.6-9.2c3-3.3,6-6.7,8.8-10.2
	c7.3-9.3,13.3-19.4,18.9-29.8c3.5-6.5,6.8-13.1,10.1-19.7c3.2-6.5,6.5-12.9,10-19.3c1.4-2.6,2.8-5.2,4.2-7.7c0-0.1,0.1-0.1,0.1-0.1
	c0,0-0.1,0.1-0.1,0.1c-0.6,0.3-1.2,0.6-1.7,0.9c-7.6,5.4-15.2,10.8-23.1,15.8c-4.5,2.9-9,5.8-13.5,8.5c-5.1,3.1-10.3,6-15.4,8.9
	c-1.5,0.8-2.9,2-4.6,2.3l0,0c0-0.3,0.2-0.5,0.4-0.8c1.9-2.9,3.8-5.7,5.6-8.6c0.2-0.4,0.7-0.7,0.6-1.3c-1.4,0.8-2.7,1.6-4,2.4
	c-6.6,4-13.4,7.7-20.4,11.1c-9.7,4.8-19.6,9.3-29.3,14c-5.8,2.8-11.6,5.7-17.3,8.7c-6.2,3.3-12.2,6.9-18.1,10.9
	c-7,4.8-13.4,10.3-20,15.6c-8.6,6.9-18,12.3-28.3,16.2c-0.8,0.3-1.5,0.8-2.4,0.8c0-0.1,0-0.2,0-0.2c5.1-7.6,10.8-14.7,16.1-22.2
	c1.1-1.6,2.3-3,3-4.8c0,0,0.1-0.1,0.1-0.1c0,0-0.1,0.1-0.1,0.1c-0.5,0.3-1,0.6-1.5,0.9c-7.2,5.4-14.7,10.4-22.1,15.5
	c-8,5.5-16.1,10.8-24.2,16.2c-9,6-17.8,12.2-26.4,18.8c-6.9,5.2-13.6,10.6-20,16.4c-4.5,4.1-8.9,8.1-13,12.6c-3,3.3-6.1,6.6-9,10.1
	c-4.3,5.1-8.4,10.4-12.1,16c-2.9,4.4-5.8,8.9-8.6,13.4c-1.1,1.8-2.4,3.4-3.1,5.3l0,0c-0.1,0.1-0.2,0.2-0.2,0.2
	c-3.3,1.7-6.8,3.4-10.4,4.3c0.1-0.4,0.1-0.7,0.2-1.1c1.8-6.2,3.6-12.4,5.3-18.5c0.7-2.4,1.4-4.9,1.9-7.7c-0.4,0.4-0.5,0.5-0.6,0.7
	c-3.2,4-6.5,7.8-9.9,11.6c-3.7,4.2-7.6,8.3-11.4,12.4c-1.9,2.1-3.8,4.2-5.7,6.3c-4.3,1.7-7.8,4.3-10.1,8.5
	c-3,5.7-6.8,10.9-11.4,15.4c-3.7,3.6-5.6,8-5.7,13.1c-0.2,0.2-0.4,0.4-0.5,0.5c-4.2,7.4-8.1,14.9-11.2,22.8c-0.9,2.2-2,4.4-2.4,6.9
	c-0.2,0.3-0.5,0.7-0.7,1c-0.7,1.2-1.9,2-2.3,3.4c-3.2,4.8-4.1,10-2.6,15.7C6,379.9,6,380.2,6,380.4c-0.6,3.7-1,7.5-1.3,11.3
	c-0.4,6-0.2,12,0.7,18c0.3,1.8,0.8,3.5,0.8,5.2c-2.1-4.8-3.4-9.9-4.4-15.1C1,395.8,0.5,391.7,0.3,387.4L0.3,387.4z M259.7,120.1
	c-0.1,0-0.2-0.2-0.2,0c0,0.1,0,0.2,0,0.3c-0.1,0-0.1-0.1-0.2-0.1c0,0.1,0,0.1,0,0.2c0.1,0,0.1-0.1,0.2-0.1
	C259.5,120.3,259.5,120.2,259.7,120.1c0.1-0.1,0.1-0.2,0.2-0.2c0.2-0.1,0.4-0.3,0.3-0.4c-0.3-0.3-0.3,0.2-0.5,0.3
	C259.6,119.8,259.4,119.9,259.7,120.1L259.7,120.1z"/>
<path class="st3" d="M356.6,198.7c-0.5,1.4-1.7,2.3-2.6,3.4c-3.6,4.3-7.2,8.7-10.6,13.2c-5.8,7.4-11.5,14.9-17.2,22.4
	c-4.8,6.2-9.8,12.4-15,18.3c-2.9,3.3-5.8,6.5-8.8,9.6c-3.8,3.9-7.7,7.7-11.8,11.3c-2.7,2.3-5.6,4.5-8.5,6.6
	c-0.2,0.1-0.5,0.2-0.2,0.5c-0.6,0.5-1.6,0.5-2,1.3c-1.8,0.8-3.2,2-4.8,3c-5.6,3.6-11.4,7-17.3,10.1c-1,0.5-2,1.4-3.2,1.5
	c0.6-1,1.5-1.8,2.2-2.7c5-6.3,10-12.5,14.8-18.9c4.5-5.9,9-11.8,13.8-17.5c0.6-0.8,1.5-1.4,1.9-2.9c-16.8,6.1-34.1,6.2-51.4,5.6
	c0.1-0.1,0.2-0.2,0.3-0.2c5.1-2.7,10.1-5.5,15.1-8.2c8-4.3,15.4-9.5,22.2-15.7c4-3.7,7.7-7.8,11-12.1c4.1-5.2,7.6-10.9,11-16.6
	c0.9-1.6,1.6-3.4,2.9-4.7c0.5-0.3,1-0.2,1.6-0.2c5.8,0,11.5,0.1,17.2,0c5.7-0.1,11.4-0.9,17-1.9c7.5-1.3,14.8-3.2,22.1-5.3
	C356.3,198.6,356.4,198.6,356.6,198.7L356.6,198.7L356.6,198.7z"/>
<path class="st1" d="M0.5,371.2c0.1,0.2,0.1,0.3,0,0.5C0.3,371.6,0.3,371.4,0.5,371.2z"/>
<path class="st0" d="M418.1,24.1c0-0.1,0-0.1,0-0.2c0,0,0.1,0,0.1,0C418.1,24,418.1,24,418.1,24.1L418.1,24.1z"/>
<path class="st0" d="M436.7,136.8c0-0.1,0-0.1,0-0.2c0,0,0.1,0,0.1,0.1C436.8,136.7,436.7,136.7,436.7,136.8L436.7,136.8z"/>
<path class="st4" d="M298.2,206.1c-1.3,1.4-1.9,3.1-2.9,4.7c-3.4,5.7-6.9,11.4-11,16.6c-3.3,4.3-7,8.4-11,12.1
	c-6.7,6.2-14.1,11.4-22.1,15.7c-5.1,2.7-10.1,5.5-15.1,8.2c-0.1,0-0.2,0.1-0.3,0.2c17.3,0.6,34.6,0.5,51.4-5.6
	c-0.4,1.4-1.3,2.1-1.9,2.9c-4.8,5.7-9.3,11.6-13.8,17.5c-4.9,6.4-9.9,12.6-14.8,18.9c-0.7,0.9-1.6,1.7-2.2,2.7
	c-2.3,2.5-4.6,5-6.9,7.5c-4.5,4.7-9.1,9.3-14.4,13.2c-0.2,0.1-0.3,0.3-0.4,0.5c-0.3,0.2-0.7,0.4-0.9,0.6c-3.3,2.5-6.7,4.8-10.3,6.9
	c-7.7,4.6-15.7,8.7-23.7,12.8c-3.2,1.6-6.3,3.4-9.5,4.9c-1.9,0.9-3.6,2.2-5.6,3c-0.1-0.9,0-1.8-0.2-2.7c2.1-1.3,3.5-3.4,5.3-5.2
	h-6.6c-0.9-1.5-1.7-3.1-2.8-4.4c-0.9-1.1-1.9-2-2.6-3.2c2.2-1.3,4.5-2.6,6.7-3.9c5.5-3.2,10.7-6.9,15.2-11.4
	c2.1-2.1,4.1-4.3,6.1-6.5c3.2-3.7,6.2-7.6,9.2-11.5c2.3-3,4.6-6,6.9-8.9c1.5-1.9,3-3.8,4.5-5.7c-10.3,3.5-20.9,3.4-31.7,3.1
	c0.5-0.3,0.9-0.6,1.3-0.8c3.4-1.9,6.9-3.7,10.3-5.7c8.5-4.9,15.5-11.5,21.1-19.5c3.8-5.3,6.6-11.2,9.7-16.9c1.7-3.3,3.2-6.6,5-9.8
	c1-1.7,1.8-3.5,2.7-5.2c-8.8,5.9-17.5,11.7-26.9,16.6c0.6-1.1,1.2-2.1,1.9-3.2c0.2-0.3,0.7-0.6,0.4-1c-0.4-0.4-0.6,0.1-0.9,0.3
	c-3.1,1.7-6.2,3.4-9.4,5c-3.4,1.7-7,3.3-10.4,5c-4.9,2.4-9.8,4.7-14.6,7.4c-2.8,1.6-5.5,3.3-8.1,5.3c-4.6,3.5-8.9,7.6-14.1,10.4
	c-2.1,1.1-4.3,2.2-6.8,3c0.1-0.9,0.6-1.4,1-1.9c2.1-3,4.3-5.9,6.5-8.9c0.1-0.2,0.5-0.4,0.2-0.7c-0.3-0.3-0.5,0-0.8,0.2
	c-1.9,1.3-3.7,2.7-5.6,3.9c-8.3,5.6-16.7,11.1-24.9,16.9c-0.8-0.6-1.5-1.2-2.2-1.9c-2.9-2.8-6.3-4.6-10.3-5.4
	c-1.1-0.2-2.2,0-3.3-0.4c0.6-1.1,1.7-1.7,2.5-2.5c3.9-3.6,8-6.9,12.2-10.1c6.4-4.9,12.9-9.6,19.6-14.1c6.8-4.6,13.6-9.1,20.4-13.7
	c4.9-3.3,9.7-6.6,14.4-10c1-0.7,2-1.4,3-2.1c0.1,0.1,0.1,0.2,0.2,0.2c-4.4,6.8-9.7,13.1-14.1,20c1.6-0.5,3.1-1.2,4.6-1.8
	c7.5-2.9,14-7.4,20.1-12.5c4.6-3.8,9.2-7.5,14.1-10.9c5.6-3.8,11.5-7,17.5-10.1c7.4-3.8,14.9-7.2,22.4-10.7
	c7.8-3.7,15.6-7.6,23.1-12.1c1-0.6,1.8-1.4,3-1.6l0,0c-1.4,2.6-3.2,5-4.6,7.6c15.2-8.1,29.6-17.6,43.7-27.4
	c-1.8,3.6-3.8,7.2-5.7,10.8c-2.8,5.4-5.5,10.8-8.3,16.3c-0.2,0.4-0.3,0.8-0.5,1.3c-0.5,0.4-0.7,1.1-1,1.7c-0.9,1.8-1.9,3.5-2.8,5.3
	C298.4,205.3,298.1,205.6,298.2,206.1L298.2,206.1z M162.3,267.3C162.3,267.3,162.3,267.2,162.3,267.3c-0.1-0.1-0.1,0-0.1,0
	C162.2,267.3,162.3,267.3,162.3,267.3C162.3,267.3,162.3,267.3,162.3,267.3L162.3,267.3z M218.7,242.6
	C218.7,242.6,218.6,242.7,218.7,242.6c0,0.2,0.1,0.2,0.1,0.1C218.8,242.7,218.8,242.6,218.7,242.6
	C218.8,242.6,218.7,242.6,218.7,242.6L218.7,242.6z"/>
<path class="st5" d="M182.6,346.4c0.3,0.9,0.1,1.8,0.2,2.7c0,0.8-0.4,1.6-0.2,2.5c-0.2,1.4-0.4,2.9-0.5,4.3
	c-0.5,7.8,0.4,15.5,2.9,23c0.8,2.5,1.2,5.1,0.9,7.8c-0.2,1.4-0.6,2.8-0.8,4.2l0,0c-0.2,0.1-0.2,0.3-0.2,0.5c-0.8,1.5-1.4,3-2.5,4.4
	c-3.5,4.4-6,9.4-7.4,14.8c-0.8,2.9-0.9,6-2,8.9c-0.3,0.7-0.6,1.4-1,2c-2.3-0.1-4.6,0.4-6.9,0.8c-3.4,0.6-6.8,1.5-9.7,3.5
	c-2.6,1.7-4.2,4.2-6.1,6.6c-2.6,3.4-5.2,6.6-8.9,8.8c-1.9,1.1-4,1.8-6.2,1.5c-1.8-0.3-3.5-0.7-5.2-0.7c-3,0.1-5.9,1.1-8.7,2.1
	c-3.3,1.2-6.6,2.5-10.1,2.7c-3.7,0.3-7.1-0.7-10.3-2.6c-2.2-1.4-4.7-1.7-7.2-1.8c-3.3-0.1-6.7,0.2-10,0.5c-2,0.1-4,0-6.1-0.2
	c-2.3-0.2-4.4-0.8-6.5-1.8c-2.5-1.2-3.8-3.6-5.5-5.6c-2.4-2.8-5.1-5.1-9-5.8c-2.2-0.4-4.5-0.2-6.7-0.2c-2.8,0.1-5-1.1-6.7-3.1
	c-1.7-1.9-3.4-3.8-5.3-5.6c-4-3.6-8.5-6.5-13.2-9c-0.6-1.5-0.8-3-1.7-4.4c-0.2-0.5-0.4-1.1-0.6-1.6c-1.9-4.5-4.6-8.5-7.2-12.5
	c-2.8-4.3-6.3-8.2-7.9-13.2c-1.5-5.6-0.6-10.8,2.5-15.7c0.4,0.6,0.8,1.2,1.1,1.8c2.4,4.2,5.8,7.3,10,9.5c3.8,2,7.9,2.6,12,3.1
	c4.6,0.6,8.8,2.3,12.8,4.6c3.4,2,5.8,5,8.8,7.4c5,4,10.6,4.9,16.6,2.8c4.2-1.5,8.4-2.6,12.9-2.6c3.8,0,7.6,0.8,11.2,2.1
	c2.3,0.8,4.7,1.1,7.1,0.9c4-0.2,7.4-1.8,10.3-4.5c4.6-4.3,9.9-5.6,16-4.2c5.8,1.3,11.5,1.4,17.2-0.2c8-2.2,14.3-6.8,19-13.6
	c1.9-2.8,3.9-5.2,6.9-7c3.2-1.9,5.5-4.8,6.8-8.4c0.8-2.3,1-4.8,1.7-7.1c0.6-2,1.1-4,2.5-5.7C182.1,344,182.5,345.2,182.6,346.4
	L182.6,346.4z M31.9,409c1.6,0.1,3.3-0.5,4.7-1.7c0.9-0.8,1.5-1.9,2.3-2.9c1.9-2.4,4-4.5,5.7-7c0.6-0.9,0.7-1.8,0.2-2.8
	c-0.8-1.4-1.8-2.6-3.1-3.6c-4.8-3.6-10.1-5.3-16.1-4.6c-2.7,0.3-4.5,2.6-4.1,5c0.2,0.9,0.3,1.9,0.5,2.8c0.5,2.4,0.8,4.9,2.2,7
	c0.8,1.2,1.5,2.4,1.8,3.8C26.8,408.1,28.6,408.9,31.9,409z M132.3,418.3c0.1-1.6-0.2-3.4-0.7-5.1c-1.2-5.3-3.4-10.2-6.1-14.9
	c-1.5-2.7-3.3-5.2-5.6-7.2c-0.6-0.6-1.3-1.2-2.3-0.9c-1,0.4-1.1,1.3-1.3,2.2c-0.3,2.1,0,4.2,0.3,6.2c0.4,3.1,0.9,6.1,2.1,9
	c1.4,3.6,3,7.2,4.2,10.9c0.7,2.2,2.1,4,3.8,5.6c1.3,1.2,2.8,1.1,4-0.2C132.2,422.4,132.4,420.5,132.3,418.3L132.3,418.3z
	 M83.4,399.6c-3.3,0-5.5,1.5-6.4,4.4c-0.3,1-0.7,2-0.9,3.1c-0.6,2.2-1.2,4.5-1.1,6.8c0.1,2.1,1.1,3.6,2.7,4.1
	c1.1,0.3,2.1,0.4,3.2,0.3c1.9-0.2,3-0.9,3-2.2c-0.1-2.3,0.1-4.5,0.6-6.8c0.5-2.4,0.4-5,2.8-6.6c1-0.7,0.8-1.5-0.2-2.2
	C85.8,399.8,84.6,399.6,83.4,399.6L83.4,399.6z M165.4,380.2c0,3.6,1.5,7.4,3.6,9.9c0.9,1,1.7,2.1,2.9,2.9c0.6,0.4,1.3,1,2,0.6
	c0.7-0.3,0.7-1.1,0.7-1.9c0-0.9-0.1-1.8-0.2-2.7c-0.4-5.6-2.5-10.6-5.6-15.2c-0.5-0.8-1.1-0.8-1.4,0
	C166.5,376.2,165.6,378.5,165.4,380.2L165.4,380.2z M159.9,401.8c0.1-1.2-0.2-2.3-0.5-3.4c-0.5-2-1.5-2.9-3.5-3.3
	c-3-0.5-6.1,0-9.1-0.5c-0.4-0.1-0.8-0.1-1,0.4c-0.1,0.4,0.1,0.8,0.4,1c1.2,0.7,1.7,1.8,2.2,3c0.3,0.6,0.8,1,1.4,1.4
	c1.6,1.1,3.4,1.8,5.3,2.4c1.1,0.4,1.8,1,2.2,2.1c0.3,1.1,0.7,1.1,1.5,0.4C159.9,404.3,159.9,403.1,159.9,401.8L159.9,401.8z
	 M101.5,410.3c0,1.8,0.8,3.4,2,4.7c1.8,2.1,4.4,3.3,6.4,5.2c0.8,0.7,1.5,0.3,1.8-0.8c0.1-0.4,0.1-0.9,0.1-1.3
	c-0.2-1.3-0.4-2.7-0.7-4c-0.8-3.3-2.3-5.9-6-6.6C102.3,406.9,101.5,407.5,101.5,410.3L101.5,410.3z M88.5,426.7
	c-1.9-0.1-3.7,0.1-5.5,0.6c-1.6,0.4-1.8,1.1-0.6,2.3c0.2,0.2,0.3,0.4,0.6,0.5c3.3,2,6.6,4,10.6,4.2c1.2,0.1,2.5-0.1,3.2-1.4
	c0.5-0.9,0.5-1.9,0-2.8c-0.6-0.9-1.4-1.7-2.4-2.3C92.5,426.8,90.5,426.6,88.5,426.7L88.5,426.7z M106.2,437.4c-1.6,0-3,0.7-3.4,1.8
	c-0.4,1.1,0.1,2,0.9,2.8c0.7,0.6,1.5,0.9,2.6,0.7c1.9-0.4,3.9-0.5,5.8-0.9c1-0.2,1.6-0.9,1.6-1.8c0.1-0.9-0.7-1.3-1.5-1.5
	C110.2,438.1,108.1,437.7,106.2,437.4L106.2,437.4z M41.8,413.1c0,2.5,0.8,4.7,2.7,6.4c0.5,0.5,1.1,0.6,1.7,0.2
	c0.9-0.7,1.9-4.2,1.5-5.3c-0.7-1.9-2.1-3-3.8-3.8c-1-0.4-1.8,0.2-2,1.2C41.8,412.3,41.8,412.7,41.8,413.1L41.8,413.1z M152.7,412.7
	c-1-0.1-1.4,0.3-1,1.3c0.4,0.9,0.6,1.8,1.1,2.6c0.4,0.8,1.1,1.4,2.1,1c1.1-0.5,2.1-1.1,3-2c0.9-1,0.7-1.8-0.6-2.1
	C155.8,413.2,154.3,413,152.7,412.7L152.7,412.7z M137.8,432.6c1.4,0,3.3-2.2,3.2-3.6c0-0.3-0.1-0.5-0.4-0.7
	c-1.1-0.7-4.1-0.5-5.2,0.4c-0.4,0.4-0.6,0.9-0.6,1.4C135,431.4,136.5,432.7,137.8,432.6L137.8,432.6z M78.9,437.4
	c0-1.4-1.2-3-2.5-3.4c-0.8-0.2-1.5,0.1-1.5,1c0,1,0.2,2.1,0.9,2.9c0.6,0.7,1.6,1,2.5,0.7C79,438.4,78.8,437.8,78.9,437.4L78.9,437.4
	z"/>
<path class="st3" d="M172.9,419.5c1.2-2.9,1.3-5.9,2-8.9c1.4-5.5,3.9-10.4,7.4-14.8c1.1-1.4,1.7-2.9,2.5-4.4
	c0.2-0.1,0.2-0.3,0.2-0.5l0,0c0.5,0,0.8-0.4,1.1-0.7c8-7.9,15.9-16,24-23.8c5.9-5.7,11.6-11.6,17.6-17.1c0.2-0.2,0.5-0.4,0.4-0.7
	c-0.1-0.3-0.4-0.2-0.7-0.2c-3-0.2-5.9-0.3-8.9-0.1c-3.7,0.2-7.4,0.5-11.1,0.8c-3.7,0.3-7.4,0.7-11.1,1.1c-4.6,0.5-9.2,0.9-13.9,1.4
	c-0.1-0.9,0.2-1.7,0.2-2.5c2-0.7,3.7-2,5.6-3c3.2-1.6,6.3-3.3,9.5-4.9c8-4,16-8.2,23.7-12.8c3.6-2.1,7-4.3,10.3-6.9
	c0.3-0.2,0.6-0.4,0.9-0.6c2-0.2,4-0.5,6-0.7c2.9-0.3,5.7-0.6,8.6-0.9c1.9-0.2,3.9-0.4,5.8-0.5c8-0.8,16-0.9,24-0.8
	c0.5,0,0.9,0,1.5,0c-0.9,1.2-1.9,2.1-2.9,3c-0.6,0.5-1.2,1-1.7,1.6c-4.6,4.5-9.1,9-13.7,13.4c-13.1,12.6-25.8,25.8-38.8,38.5
	c-5.4,5.3-10.9,10.6-16.4,15.9c-3.8,3.7-7.7,7.3-11.6,10.9c-5.7,5.2-11.5,10.4-17.4,15.5C175.1,417.7,174.1,418.7,172.9,419.5
	L172.9,419.5z"/>
<path class="st6" d="M23.6,411.5c4.8,2.5,9.3,5.4,13.3,9c1.9,1.7,3.6,3.6,5.3,5.6c1.8,2,3.9,3.2,6.7,3.1c2.2,0,4.5-0.2,6.7,0.2
	c3.8,0.7,6.5,3,8.9,5.8c1.7,2,2.9,4.4,5.5,5.6c2.1,1,4.2,1.6,6.5,1.8c2,0.2,4.1,0.3,6.1,0.2c3.3-0.2,6.7-0.5,10-0.5
	c2.5,0,5,0.4,7.2,1.8c3.1,1.9,6.6,2.9,10.3,2.6c3.5-0.2,6.8-1.5,10.1-2.7c2.8-1.1,5.7-2.1,8.7-2.1c1.7,0,3.5,0.4,5.2,0.7
	c2.3,0.3,4.3-0.4,6.2-1.5c3.7-2.1,6.4-5.4,8.9-8.8c1.8-2.4,3.5-4.9,6.1-6.6c2.9-2,6.3-3,9.7-3.5c2.3-0.4,4.5-0.9,6.9-0.8
	c-1.3,2.9-3.5,4.9-6,6.7c-5.9,4.2-11.9,8.2-17.8,12.4c-3.4,2.5-6.6,5.3-9.9,8c-4.3,3.4-8.4,7-12.8,10.2c-4.5,3.3-9.7,4.2-15.1,3
	c-2.4-0.6-4.7-1.7-6.7-3.1c-0.9-0.6-1.9-1.4-3-1.7c-3.5-2-7.3-2.4-11.1-1.8c-3.3,0.5-6.5,1.6-9.7,2.5c-5,1.4-9.9,1.2-14.6-1.2
	c-3.5-1.8-6-4.6-8.2-7.8c-4.6-6.8-10.6-11.5-18.6-13.6c-2.4-0.6-4.5-1.9-6.4-3.5c-3.6-3-5.8-7-6.5-11.6
	C25,417.1,24.1,414.4,23.6,411.5L23.6,411.5z"/>
<path class="st3" d="M100.5,457c1.1,0.3,2.1,1,3,1.7c2.1,1.4,4.3,2.4,6.7,3.1c-2.7,1.1-5.4,1.9-8.2,2.6c-5.4,1.4-10.9,2.4-16.5,2.9
	c-2.3,0.2-4.6,0-6.9,0.4c-0.2,0-0.5,0-0.7,0.2c-5.8-0.5-11.6-0.7-17.4-1.9c-14.2-2.9-26.8-9.1-37.1-19.4
	C15.3,438.5,10,428.7,7,417.7c-0.3-0.9-0.5-1.9-0.8-2.8c0-1.8-0.6-3.5-0.8-5.2c-0.9-6-1.1-12-0.7-18c0.2-3.8,0.7-7.5,1.3-11.3
	c0-0.2,0-0.5,0.2-0.7c1.6,5,5.1,8.9,7.9,13.2c2.6,4,5.3,8.1,7.2,12.5c0.2,0.5,0.4,1.1,0.6,1.6c0.1,2,0,4,0.2,6.1
	c0.4,4.5,1.2,9,2.7,13.3c2.9,8.5,7.6,15.7,14.5,21.5c4.5,3.8,9.5,6.6,15,8.9c6.1,2.5,12.6,3.7,19.1,4.2c4.7,0.3,9.5,0,14.2-0.8
	C91.9,459.5,96.2,458.3,100.5,457L100.5,457z"/>
<path class="st3" d="M302.4,197.9c0.2-0.4,0.3-0.9,0.5-1.3c2.8-5.4,5.5-10.9,8.3-16.3c1.9-3.6,3.8-7.1,5.7-10.8
	c-14.1,9.9-28.4,19.3-43.7,27.4c1.4-2.6,3.2-5,4.6-7.6c0,0,0.1-0.1,0.1-0.1c0,0-0.1,0.1-0.1,0.1c-1.2,0.1-2.1,1-3,1.6
	c-7.5,4.5-15.2,8.3-23.1,12.1c-7.5,3.6-15,7-22.4,10.7c-6,3.1-11.9,6.2-17.5,10.1c-4.9,3.4-9.5,7.1-14.1,10.9
	c-6.1,5.1-12.7,9.5-20.1,12.5c-1.5,0.6-3,1.3-4.6,1.8c4.4-6.9,9.6-13.2,14.1-20c-0.1-0.1-0.1-0.2-0.2-0.2c-1,0.7-2,1.4-3,2.1
	c-4.7,3.5-9.6,6.8-14.4,10c-6.8,4.6-13.6,9.1-20.4,13.7c-6.7,4.5-13.2,9.2-19.6,14.1c-4.2,3.2-8.3,6.5-12.2,10.1
	c-0.9,0.8-1.9,1.4-2.5,2.5l0,0c-0.1,0.1-0.2,0.1-0.2,0.2c-0.8,0.1-1.6,0-2.5,0.1c-2.5,0.5-4.9,1.2-7.2,2.1c-3.3,1.3-6.3,1-9.3-1.3
	c-2.5-2-5.3-1.9-8.1-0.2c-1.2,0.7-2.3,1.5-3.6,2c0.7-2,2-3.6,3.1-5.3c2.8-4.5,5.6-9,8.6-13.4c3.7-5.5,7.8-10.9,12.1-16
	c2.9-3.4,6-6.7,9-10.1c4.1-4.5,8.5-8.6,13-12.6c6.4-5.8,13.1-11.2,20-16.4c8.6-6.5,17.5-12.8,26.4-18.8c8.1-5.4,16.2-10.8,24.2-16.2
	c7.4-5.1,14.9-10.1,22.1-15.5c0.5-0.3,1-0.6,1.5-0.9l0,0c-0.7,1.8-1.9,3.3-3,4.8c-5.2,7.5-11,14.6-16.1,22.2c0,0,0,0.1,0,0.2
	c0.9-0.1,1.6-0.5,2.4-0.8c10.3-3.9,19.7-9.3,28.3-16.2c6.6-5.3,13-10.8,20-15.6c5.8-4,11.9-7.5,18.1-10.9c5.7-3.1,11.5-5.9,17.3-8.7
	c9.8-4.7,19.6-9.3,29.3-14c7-3.4,13.8-7.1,20.4-11.1c1.3-0.8,2.6-1.5,4-2.4c0.2,0.6-0.3,0.9-0.6,1.3c-1.9,2.9-3.8,5.8-5.6,8.6
	c-0.2,0.2-0.4,0.4-0.4,0.8c0,0-0.1,0-0.1,0c0,0,0,0,0,0.1c0,0,0.1-0.1,0.1-0.1c1.7-0.4,3.1-1.5,4.6-2.3c5.2-2.9,10.4-5.9,15.4-8.9
	c4.6-2.8,9-5.7,13.5-8.5c7.9-5,15.5-10.5,23.1-15.8c0.5-0.4,1.1-0.6,1.7-0.9l0,0c-1.4,2.6-2.8,5.2-4.2,7.7
	c-3.5,6.3-6.8,12.8-10,19.3c-3.3,6.6-6.6,13.2-10.1,19.7c-5.6,10.4-11.6,20.5-18.9,29.8c-2.8,3.6-5.8,6.9-8.8,10.2
	c-3,3.3-6.2,6.3-9.6,9.2c-6.2,5.4-12.8,10.3-20,14.4c-4,2.3-8,4.5-12,6.7C302.7,197.8,302.6,197.8,302.4,197.9L302.4,197.9z"/>
<path class="st7" d="M83.8,284.2c1.3-0.5,2.4-1.2,3.6-2c2.8-1.7,5.6-1.8,8.1,0.2c2.9,2.3,5.9,2.5,9.3,1.3c2.3-0.9,4.7-1.6,7.2-2.1
	c0.8-0.2,1.7,0,2.5-0.1c0.1-0.1,0.2-0.1,0.2-0.2l0,0c1.1,0.4,2.2,0.1,3.3,0.4c4,0.8,7.4,2.6,10.3,5.4c0.7,0.7,1.5,1.3,2.2,1.9
	c2.9,2.9,6.1,5.6,9.4,8c5.3,3.8,11.4,6.2,17.5,8.4c4.4,1.6,7.4,4.6,8.8,9.2c0.6,2,0.6,4,1,6c1.3,5.4,5.1,9.1,8.6,13
	c0.7,1.2,1.7,2.2,2.6,3.2c1.1,1.4,1.9,2.9,2.8,4.4c0.2,0.6,0.3,1.1,0.5,1.7c-1.3,1.7-1.8,3.7-2.5,5.7c-0.7,2.3-0.9,4.8-1.7,7.1
	c-1.3,3.6-3.6,6.5-6.8,8.4c-2.9,1.8-5,4.2-6.9,7c-4.6,6.9-10.9,11.4-19,13.6c-5.8,1.6-11.5,1.6-17.2,0.2c-6.1-1.4-11.4-0.1-16,4.2
	c-2.9,2.7-6.3,4.3-10.3,4.5c-2.5,0.1-4.8-0.1-7.1-0.9c-3.7-1.3-7.4-2-11.2-2.1c-4.5,0-8.7,1.1-12.9,2.6c-6,2.2-11.6,1.3-16.6-2.8
	c-3-2.4-5.4-5.5-8.8-7.4c-4-2.3-8.2-4-12.8-4.6c-4.1-0.5-8.2-1.1-12-3.1c-4.2-2.3-7.6-5.4-10-9.5c-0.4-0.6-0.7-1.2-1.1-1.8
	c0.4-1.4,1.6-2.2,2.3-3.4c0.2-0.4,0.5-0.7,0.7-1c3.3-4.3,6.5-8.6,9.9-12.8c3.2-4,4.8-8.5,4.5-13.6c-0.1-1.3-0.2-2.5-0.3-3.8
	c0.1-5.1,2-9.6,5.7-13.1c4.7-4.5,8.4-9.7,11.4-15.4c2.2-4.1,5.7-6.8,10.1-8.5c3.3-1.2,6.9-0.9,10.3-1.5c3.3-0.5,6.6-1,9.8-2.2
	c3.7-0.9,7.1-2.5,10.4-4.3C83.7,284.3,83.8,284.2,83.8,284.2L83.8,284.2L83.8,284.2z M97.8,343.8c-0.1-2.7,0.5-5.2,2.1-7.3
	c2.9-3.9,5.9-7.8,9-11.5c1.8-2.2,4.3-3.3,7.3-3.3c2.6,0,4.7,1.3,7,2.1c2.2,0.8,4.3,1.6,6.6,1.1c6.7-1.5,9.4-7.7,9.2-13.3
	c-0.1-3.5-1.3-6.8-3.1-9.8c-1.9-3.1-4.5-5.3-8.3-5.6c-2.8-0.2-5.5-0.5-7.8-2.3c-1.5-1.1-3-2.2-4.4-3.4c-3.8-3-7.8-3.7-12.2-1.2
	c-1.9,1-3.9,1.9-5.8,2.8c-1.2,0.6-2.5,0.9-3.9,0.9c-2.3,0-4.3-1-6.5-1.6c-2-0.5-3.9-1.5-5.9-1.6c-4.4-0.3-7.4,1.8-9.6,5.4
	c-1.7,2.7-3.8,4.8-7,5.4c-2,0.4-3.9,0-5.8-0.5c-2.9-0.8-5.7-0.4-8.1,1.5c-3,2.4-5.7,5.2-8,8.3c-2.2,3-2.9,6.5-2.2,10.1
	c0.9,4.6,2.1,9.1,5.9,12.5c3.2,2.8,7.1,3.6,11,1.8c3.8-1.8,7.5-1.9,10.9,0.7c2.8,2,4.6,4.8,5.8,8c0.7,2,1.1,4.2,0.8,6.4
	c-0.3,2.6-1.2,5.1-0.6,7.8c0.5,2.6,1.4,4.9,3.2,6.9c2.7,3,6.4,4.4,10.2,5.4c2.1,0.6,4.3,0.2,6.3-1c1.7-1,3-2.4,4-4
	c3.1-4.7,3.3-9.6,1.3-14.7C98.3,347.8,97.6,345.8,97.8,343.8L97.8,343.8z M110.9,346.3c-0.2,2.2,0.3,4.3,1.7,6
	c1.5,1.9,2.4,4,3.3,6.2c1.4,3.2,3.2,6.2,6.4,7.8c3.2,1.6,6.6,2.9,10,4c3.3,1.1,5.8,0,7.1-3.1c0.6-1.4,1.4-2.7,2.7-3.7
	c3.1-2.4,4.2-5.8,4.6-9.4c0.4-3.9,2.2-6.6,5.9-8c1.5-0.6,3.1-1.2,4.4-2.2c1.1-0.7,2.1-1.6,2.3-3c0.4-4.4-1.1-7.3-5.1-9
	c-2.5-1.1-5.1-1.7-7.7-2.1c-3.1-0.4-5.8,0.1-8.4,1.8c-1.8,1.2-3.3,2.7-4.9,4.2c-1.6,1.6-3.5,2-5.6,1.1c-1.1-0.5-2.2-1-3.3-1.5
	c-2.6-1.1-5.1-2.3-7.9-2.8c-1.9-0.4-2.3,0-2.7,1.4c-0.6,2.1-1.3,4.2-2,6.3C111.3,342.2,110.7,344.2,110.9,346.3L110.9,346.3z
	 M65.5,352.6c0.2-1.9-0.4-4.4-3.8-5.5c-2.1-0.7-4.3-1.3-6.5-1.4c-1.7,0-3.4,0.4-5.1,0.7c-1.5,0.2-2.3,0.8-2.5,2.3
	c-0.4,3.8,0.4,7.4,2.5,10.5c1.3,1.9,2.3,3.7,2.2,6.1c-0.1,1.5,0.5,2,2,2.3c1.9,0.3,3.7-0.2,5.5-0.4c1.5-0.1,2.3-1,3-2.2
	C64.5,361.4,65.4,357.6,65.5,352.6L65.5,352.6z M73.6,386.9c2.1,0,4,0.1,5.9-0.5c1.2-0.4,1.9-1.2,1.9-2.6c0-1.5-0.1-3-0.3-4.4
	c-0.3-2.1-0.7-4.1-2.7-5.1c-3.1-1.5-6.3-2.6-9.8-2.5c-1.1,0-1.7,0.4-1.6,1.6c0.1,2.8,0.3,5.6-1.2,8.2c-0.2,0.3-0.2,0.6-0.2,1
	c-0.4,2.1,0.9,3.9,3,4.1C70.2,386.9,72,387,73.6,386.9z M25.6,362.5c-0.4,0-0.8,0-1.1,0c-1.6,0-1.8,0.2-1.9,1.9
	c0,0.8-0.3,1.5-0.7,2.2c-1.5,2.4-1,4.1,1.5,5.3c0.3,0.1,0.6,0.3,0.9,0.4c3.2,1,6.5,1.8,9.9,1.9c2.2,0.1,4.4,0,6-2
	c0.3-0.4,0.8-0.6,1.3-0.7c1-0.2,1.4-0.9,1.2-1.9c-0.1-0.6-0.3-1.2-0.5-1.8c-1.1-2.3-3.1-3.3-5.4-4C33.2,362.7,29.4,362.8,25.6,362.5
	L25.6,362.5z M166,347.6c-0.6-0.1-1.1,0.1-1.7,0.3c-3.9,0.9-7.8,1.8-11.2,4.1c-1,0.7-1.3,1.5-1,2.6c0.4,1.8,1.7,3.2,1.8,5.1
	c0.1,0.9,0.5,1.1,1.2,1.3c1,0.4,2,0.1,3.1,0c5.1-0.6,9.3-2.8,11.6-7.6c0.4-0.7,1-1.7,0.3-2.3c-1.2-1.1-1.9-2.9-3.7-3.5
	C166.3,347.6,166.2,347.6,166,347.6L166,347.6z M110.2,383.2c2.2,0.7,3.2-1.5,4.6-2.9c0.2-0.2,0.3-0.5,0.2-0.8
	c-0.5-1.4-0.8-2.8-1.9-4c-1.2-1.3-2.5-2.5-3.3-4.1c-0.3-0.6-0.8-0.9-1.5-1.1c-2.5-0.5-4.5,0.5-5.4,2.9c-0.2,0.4-0.3,0.9-0.4,1.3
	c-0.6,2.5-0.7,4.9,1.4,6.9C105.7,382.9,107.7,383.2,110.2,383.2L110.2,383.2z M153.8,326.2c1.4-0.1,2.5-0.1,3.6-0.3
	c0.4,0,0.9-0.1,1-0.6c0.3-1.6,0.2-3.7-1.7-4.8c-4.1-2.2-8.5-0.3-11.1,2.7c-0.4,0.4-0.8,1-0.5,1.7c0.4,0.7,1,1,1.8,1
	C149.3,326.1,151.7,325.9,153.8,326.2L153.8,326.2z M29.1,347.1c-0.1,0.9,0.9,1.6,0.7,2.5c-0.4,2.7,2.8,4.3,4.9,4.5
	c0.6,0,1.1-0.3,1.2-0.9c0.5-1.9,1.5-3.6,2.3-5.3c0.5-1.2,0.4-1.6-0.8-1.9c-2.3-0.5-4.6-0.7-6.9-0.6C29.7,345.5,29,345.9,29.1,347.1
	L29.1,347.1z M148.8,312.8c0.5,0,1.1-0.1,1.6-0.2c1.2-0.2,1.3-0.9,1-1.8c-0.8-2.4-3.5-4.5-6-4.6c-0.8,0-1.8,0.8-1.6,1.4
	C144.3,310.5,145.3,312.8,148.8,312.8L148.8,312.8z M65.7,339.6c0-0.9,0.1-1.8,0-2.7c-0.1-0.7-0.3-1.5-1.1-1.4
	c-1.9,0.2-3.8,0.6-5.7,0.9c-0.4,0.1-0.8,0.4-0.8,0.8c0,0.5,0.2,1.2,0.6,1.3c1.8,0.5,3.1,1.9,4.7,2.6
	C64.9,341.8,65.7,341.3,65.7,339.6L65.7,339.6z"/>
<path class="st3" d="M73.1,288.7c-3.2,1.2-6.5,1.7-9.8,2.2c-3.4,0.5-7,0.3-10.3,1.5c1.9-2.1,3.8-4.2,5.7-6.3
	c3.8-4.1,7.6-8.2,11.4-12.4c3.4-3.8,6.7-7.6,9.9-11.6c0.1-0.1,0.2-0.3,0.6-0.7c-0.6,2.8-1.3,5.3-1.9,7.7c-1.8,6.2-3.6,12.4-5.3,18.5
	C73.2,288,73.2,288.3,73.1,288.7L73.1,288.7z"/>
<path class="st3" d="M25.9,329.4c0.1,1.3,0.2,2.5,0.3,3.8c0.3,5.1-1.2,9.6-4.5,13.6c-3.4,4.2-6.6,8.5-9.9,12.8
	c0.4-2.4,1.5-4.6,2.4-6.9c3.2-7.9,7.1-15.4,11.2-22.8C25.5,329.8,25.7,329.6,25.9,329.4L25.9,329.4z"/>
<path class="st3" d="M356.6,198.6c0.1-0.1,0.2-0.1,0.3-0.2c0,0,0,0.1,0.1,0.1C356.8,198.6,356.7,198.6,356.6,198.6L356.6,198.6z"/>
<path class="st8" d="M259.7,119.7c0.2-0.1,0.2-0.6,0.5-0.3c0.1,0.1-0.1,0.3-0.3,0.4C259.8,119.8,259.8,119.7,259.7,119.7z"/>
<path class="st3" d="M396.4,80.8c0,0,0.1-0.1,0.1-0.1C396.5,80.7,396.5,80.8,396.4,80.8L396.4,80.8L396.4,80.8z"/>
<path class="st3" d="M83.8,284.2c-0.1,0.1-0.2,0.2-0.2,0.2C83.7,284.4,83.8,284.3,83.8,284.2z"/>
<path class="st3" d="M223.8,159.1c0,0,0.1-0.1,0.1-0.1C223.9,159,223.9,159.1,223.8,159.1L223.8,159.1L223.8,159.1z"/>
<path class="st8" d="M411,40.2c0,0.1,0.1,0.1,0.1,0.2c0,0-0.1,0-0.1,0C411,40.4,411,40.3,411,40.2L411,40.2z"/>
<path class="st8" d="M259.4,120.3l-0.2,0.1c0-0.1,0-0.1,0-0.2C259.3,120.3,259.4,120.3,259.4,120.3L259.4,120.3L259.4,120.3z"/>
<path class="st8" d="M259.4,120.4c0-0.1,0-0.2,0-0.3c0.1-0.2,0.2,0,0.2,0l0,0C259.6,120.2,259.5,120.2,259.4,120.4L259.4,120.4
	L259.4,120.4z"/>
<path class="st8" d="M259.9,119.8c-0.1,0.1-0.2,0.2-0.3,0.2l0,0c-0.2-0.2,0-0.3,0-0.4C259.8,119.7,259.8,119.8,259.9,119.8
	L259.9,119.8z"/>
<path class="st9" d="M175.8,333.5c-3.5-3.9-7.3-7.6-8.6-13c-0.5-2-0.4-4-1-6c-1.4-4.6-4.4-7.6-8.8-9.2c-6.1-2.2-12.1-4.6-17.5-8.4
	c-3.4-2.4-6.5-5.1-9.4-8c8.2-5.8,16.6-11.4,24.9-16.9c1.9-1.3,3.7-2.6,5.6-3.9c0.2-0.2,0.5-0.5,0.8-0.2c0.3,0.3-0.1,0.5-0.2,0.7
	c-2.1,3-4.3,5.9-6.5,8.9c-0.4,0.5-0.9,1-1,1.9c2.4-0.8,4.6-1.8,6.8-3c5.2-2.8,9.5-6.8,14.1-10.4c2.6-2,5.3-3.7,8.1-5.3
	c4.8-2.7,9.7-5,14.6-7.4c3.4-1.7,7-3.2,10.4-5c3.2-1.6,6.2-3.4,9.4-5c0.3-0.1,0.6-0.7,0.9-0.3c0.3,0.4-0.2,0.7-0.4,1
	c-0.6,1-1.3,2-1.9,3.2c9.4-4.9,18.1-10.7,26.9-16.6c-0.9,1.7-1.8,3.5-2.7,5.2c-1.8,3.2-3.3,6.6-5,9.8c-3,5.7-5.9,11.6-9.7,16.9
	c-5.6,8-12.6,14.6-21.1,19.5c-3.4,2-6.9,3.8-10.3,5.7c-0.4,0.2-0.8,0.5-1.3,0.8c10.8,0.3,21.4,0.4,31.7-3.1c-1.5,1.9-3,3.8-4.5,5.7
	c-2.3,3-4.6,5.9-6.9,8.9c-3,3.9-6,7.8-9.2,11.5c-1.9,2.2-4,4.4-6.1,6.5c-4.5,4.5-9.7,8.2-15.2,11.4
	C180.3,330.9,178,332.2,175.8,333.5L175.8,333.5z"/>
<path class="st9" d="M181.8,342.9c-0.2-0.6-0.3-1.1-0.5-1.7c2.2,0,4.4,0,6.6,0c-1.8,1.8-3.2,3.9-5.3,5.2
	C182.5,345.2,182.1,344,181.8,342.9z"/>
<path class="st9" d="M162.4,267.3C162.4,267.3,162.3,267.3,162.4,267.3c-0.1,0.1-0.1,0-0.1,0C162.2,267.2,162.3,267.2,162.4,267.3
	C162.3,267.2,162.3,267.2,162.4,267.3L162.4,267.3z"/>
<path class="st9" d="M218.7,242.6C218.7,242.6,218.8,242.6,218.7,242.6c0.1,0,0.1,0.1,0.1,0.1C218.7,242.8,218.7,242.8,218.7,242.6
	C218.7,242.6,218.7,242.6,218.7,242.6L218.7,242.6z"/>
<path class="st4" d="M182.6,351.6c4.6-0.5,9.2-0.9,13.9-1.4c3.7-0.4,7.4-0.8,11.1-1.1c3.7-0.3,7.4-0.5,11.1-0.8
	c3-0.2,5.9-0.1,8.9,0.1c0.2,0,0.6-0.1,0.7,0.2c0.1,0.3-0.2,0.5-0.4,0.7c-6.1,5.5-11.7,11.5-17.6,17.1c-8.1,7.8-15.9,15.9-24,23.8
	c-0.3,0.3-0.6,0.7-1.1,0.7c0.2-1.4,0.6-2.8,0.8-4.2c0.3-2.7-0.1-5.3-0.9-7.8c-2.4-7.5-3.3-15.1-2.9-23
	C182.2,354.4,182.4,353,182.6,351.6L182.6,351.6z"/>
<path class="st10" d="M100.5,457c-4.2,1.3-8.5,2.5-12.9,3.2c-4.7,0.7-9.4,1.1-14.2,0.8c-6.6-0.4-13-1.6-19.1-4.2
	c-5.4-2.2-10.5-5-15-8.9c-6.8-5.8-11.6-13-14.5-21.5c-1.4-4.3-2.3-8.7-2.7-13.3c-0.2-2-0.1-4-0.2-6.1c0.8,1.4,1.1,2.9,1.7,4.4
	c0.5,2.9,1.4,5.6,1.9,8.5c0.8,4.6,2.9,8.6,6.5,11.6c1.9,1.6,4,2.9,6.4,3.5c8,2.1,14,6.9,18.6,13.6c2.2,3.2,4.7,6,8.2,7.8
	c4.7,2.4,9.5,2.6,14.6,1.2c3.2-0.9,6.4-2,9.7-2.5C93.2,454.6,97,455,100.5,457L100.5,457z"/>
<path class="st6" d="M31.9,409c-3.3-0.1-5.1-1-5.9-4.1c-0.4-1.4-1-2.6-1.8-3.8c-1.5-2.1-1.8-4.6-2.2-7c-0.2-0.9-0.3-1.9-0.5-2.8
	c-0.4-2.3,1.4-4.6,4.1-5c6-0.7,11.3,1,16.1,4.6c1.3,1,2.3,2.2,3.1,3.6c0.5,1,0.5,1.9-0.2,2.8c-1.7,2.5-3.9,4.6-5.7,7
	c-0.8,1-1.4,2.1-2.3,2.9C35.2,408.5,33.5,409.2,31.9,409z"/>
<path class="st6" d="M132.3,418.3c0.1,2.2-0.2,4.2-1.6,5.7c-1.2,1.3-2.6,1.3-4,0.2c-1.7-1.5-3.1-3.4-3.8-5.6
	c-1.2-3.7-2.8-7.2-4.2-10.9c-1.1-2.9-1.7-6-2.1-9c-0.3-2.1-0.6-4.1-0.3-6.2c0.2-0.9,0.3-1.8,1.3-2.2c1-0.4,1.7,0.3,2.3,0.9
	c2.3,2,4.1,4.6,5.6,7.2c2.7,4.7,4.8,9.6,6.1,14.9C132.1,414.9,132.5,416.6,132.3,418.3L132.3,418.3z"/>
<path class="st6" d="M83.4,399.6c1.2,0,2.5,0.2,3.5,0.9c1,0.7,1.2,1.5,0.2,2.2c-2.4,1.6-2.3,4.2-2.8,6.6c-0.4,2.2-0.6,4.5-0.6,6.8
	c0,1.2-1.1,2-3,2.2c-1.1,0.1-2.2,0.1-3.2-0.3c-1.7-0.5-2.7-2-2.7-4.1c-0.1-2.3,0.5-4.6,1.1-6.8c0.3-1,0.6-2.1,0.9-3.1
	C77.9,401,80,399.6,83.4,399.6L83.4,399.6z"/>
<path class="st6" d="M165.4,380.2c0.2-1.8,1.1-4.1,2-6.4c0.3-0.8,0.9-0.8,1.4,0c3.1,4.6,5.2,9.6,5.6,15.2c0.1,0.9,0.2,1.8,0.2,2.7
	c0,0.7-0.1,1.5-0.7,1.9c-0.7,0.3-1.4-0.2-2-0.6c-1.2-0.8-2-1.8-2.9-2.9C166.9,387.7,165.4,383.8,165.4,380.2L165.4,380.2z"/>
<path class="st6" d="M159.9,401.8c0,1.3-0.1,2.6-1.1,3.5c-0.8,0.7-1.2,0.6-1.5-0.4c-0.3-1.1-1-1.8-2.2-2.1c-1.9-0.6-3.7-1.2-5.3-2.4
	c-0.6-0.4-1.1-0.8-1.4-1.4c-0.5-1.2-1-2.3-2.2-3c-0.3-0.2-0.5-0.6-0.4-1c0.2-0.4,0.6-0.4,1-0.4c3,0.5,6.1,0,9.1,0.5
	c2,0.3,3,1.2,3.5,3.3C159.7,399.5,160,400.6,159.9,401.8L159.9,401.8z"/>
<path class="st6" d="M101.5,410.3c0-2.8,0.8-3.4,3.4-2.8c3.7,0.8,5.2,3.3,6,6.6c0.3,1.3,0.5,2.7,0.7,4c0.1,0.4,0,0.9-0.1,1.3
	c-0.3,1.1-1,1.5-1.8,0.8c-2-1.9-4.5-3.2-6.4-5.2C102.3,413.7,101.5,412.1,101.5,410.3L101.5,410.3z"/>
<path class="st6" d="M88.5,426.7c2,0,4,0.1,5.8,1.1c1,0.6,1.8,1.3,2.4,2.3c0.6,0.9,0.6,1.9,0,2.8c-0.7,1.3-2,1.4-3.2,1.4
	c-4-0.2-7.3-2.1-10.6-4.2c-0.2-0.1-0.4-0.3-0.6-0.5c-1.2-1.1-1-1.9,0.6-2.3C84.8,426.8,86.6,426.6,88.5,426.7L88.5,426.7z"/>
<path class="st6" d="M106.2,437.4c1.9,0.4,4,0.8,6.1,1.2c0.8,0.2,1.6,0.5,1.5,1.5c-0.1,0.9-0.7,1.6-1.6,1.8
	c-1.9,0.3-3.9,0.5-5.8,0.9c-1.1,0.2-1.9-0.1-2.6-0.7c-0.8-0.7-1.3-1.6-0.9-2.8C103.2,438.1,104.6,437.4,106.2,437.4L106.2,437.4z"/>
<path class="st6" d="M41.8,413.1c0-0.4,0-0.8,0-1.2c0.1-1,1-1.6,2-1.2c1.8,0.8,3.2,2,3.8,3.8c0.4,1.1-0.6,4.6-1.5,5.3
	c-0.6,0.4-1.1,0.3-1.7-0.2C42.5,417.8,41.8,415.6,41.8,413.1L41.8,413.1z"/>
<path class="st6" d="M152.8,412.7c1.5,0.3,3.1,0.5,4.6,0.8c1.2,0.3,1.4,1.1,0.6,2.1c-0.8,0.9-1.9,1.5-3,2c-1,0.4-1.7-0.2-2.1-1
	c-0.5-0.8-0.8-1.7-1.1-2.6C151.3,413,151.7,412.6,152.8,412.7L152.8,412.7z"/>
<path class="st6" d="M137.8,432.6c-1.3,0-2.8-1.2-2.9-2.5c-0.1-0.5,0.1-1.1,0.6-1.4c1-0.9,4-1.1,5.2-0.4c0.3,0.2,0.4,0.4,0.4,0.7
	C141.1,430.4,139.2,432.6,137.8,432.6L137.8,432.6z"/>
<path class="st6" d="M78.9,437.4c0,0.5,0.1,1.1-0.6,1.2c-1,0.2-1.9,0-2.5-0.7c-0.7-0.8-0.9-1.9-0.9-2.9c0-0.9,0.7-1.2,1.5-1
	C77.7,434.3,78.8,436,78.9,437.4z"/>
<path class="st4" d="M185,390.9c0,0.2,0,0.4-0.2,0.5C184.8,391.2,184.8,391,185,390.9z"/>
<path class="st4" d="M114.7,281.2c-0.1,0.1-0.2,0.1-0.2,0.2C114.5,281.4,114.6,281.3,114.7,281.2z"/>
<path class="st4" d="M277.8,189.5c0,0,0.1-0.1,0.1-0.1C277.9,189.4,277.8,189.4,277.8,189.5L277.8,189.5L277.8,189.5z"/>
<path class="st0" d="M338,117.3c0,0-0.1,0.1-0.1,0.1C337.9,117.4,337.9,117.4,338,117.3C337.9,117.4,337.9,117.4,338,117.3
	L338,117.3L338,117.3z"/>
<path class="st11" d="M97.8,343.8c-0.1,2,0.5,4,1.3,5.9c2,5.1,1.9,10.1-1.3,14.7c-1.1,1.6-2.4,3-4,4c-2,1.2-4.2,1.5-6.3,1
	c-3.8-1-7.4-2.4-10.2-5.4c-1.8-1.9-2.6-4.3-3.2-6.9c-0.6-2.7,0.3-5.2,0.6-7.8c0.3-2.3-0.1-4.4-0.8-6.4c-1.1-3.2-3-6-5.8-8
	c-3.4-2.5-7.1-2.5-10.9-0.7c-3.9,1.8-7.8,1-11-1.8c-3.8-3.3-5-7.8-5.9-12.5c-0.7-3.7,0-7.2,2.2-10.1c2.3-3.1,5-5.9,8-8.3
	c2.4-1.9,5.1-2.3,8.1-1.5c1.9,0.5,3.8,0.9,5.8,0.5c3.2-0.6,5.3-2.7,7-5.4c2.2-3.6,5.2-5.7,9.6-5.4c2.1,0.2,4,1.1,5.9,1.6
	c2.1,0.6,4.2,1.6,6.5,1.6c1.4,0,2.7-0.3,3.9-0.9c1.9-0.9,3.9-1.8,5.8-2.8c4.4-2.4,8.4-1.8,12.2,1.2c1.4,1.1,3,2.2,4.4,3.4
	c2.3,1.8,5.1,2.1,7.8,2.3c3.8,0.3,6.4,2.6,8.3,5.6c1.9,3,3,6.3,3.1,9.8c0.2,5.6-2.5,11.8-9.2,13.3c-2.3,0.5-4.5-0.3-6.6-1.1
	c-2.3-0.8-4.4-2-7-2.1c-3,0-5.5,1.1-7.3,3.3c-3.1,3.7-6.1,7.6-9,11.5C98.3,338.6,97.7,341.1,97.8,343.8L97.8,343.8z M74.1,327
	c2.5,0,5.7-0.7,8.6-2.2c4.4-2.2,8.1-5.5,12.2-8.2c3.8-2.6,3.5-7.2,0.8-10c-3.8-3.9-8.8-5.6-14.2-6.1c-1.2-0.1-2.3,0.1-3.3,0.8
	c-3,2-6.4,3-9.9,3.7c-2.9,0.6-5.8,0.9-8.6,1.7c-3.3,1-4.5,2.7-3.9,5.5c0.3,1.2,0.1,2.3-0.5,3.3c-0.7,1.2-1.3,2.5-1.1,4
	c0.2,1.5,0.4,2.9,0.9,4.3c0.6,1.6,1.3,2,3,1.7c1.9-0.4,3.8-0.5,5.7,0C67,326.3,70.1,327,74.1,327L74.1,327z"/>
<path class="st11" d="M110.9,346.3c-0.2-2.1,0.3-4.1,0.9-6c0.6-2.1,1.4-4.1,2-6.3c0.4-1.5,0.8-1.8,2.7-1.4c2.8,0.6,5.3,1.7,7.9,2.8
	c1.1,0.5,2.2,1,3.3,1.5c2.1,0.9,3.9,0.5,5.6-1.1c1.6-1.5,3.1-3,4.9-4.2c2.6-1.7,5.3-2.2,8.4-1.8c2.7,0.4,5.3,1,7.7,2.1
	c4.1,1.8,5.6,4.6,5.1,9c-0.1,1.3-1.2,2.2-2.3,3c-1.4,0.9-2.9,1.6-4.4,2.2c-3.7,1.5-5.6,4.1-5.9,8c-0.4,3.7-1.5,7-4.6,9.4
	c-1.2,1-2.1,2.3-2.7,3.7c-1.3,3.1-3.8,4.2-7.1,3.1c-3.4-1.2-6.8-2.4-10-4c-3.2-1.6-5-4.6-6.4-7.8c-1-2.1-1.8-4.3-3.3-6.2
	C111.2,350.6,110.7,348.5,110.9,346.3L110.9,346.3z"/>
<path class="st11" d="M65.5,352.6c-0.1,5.1-1,8.8-2.7,12.3c-0.6,1.2-1.4,2.1-3,2.2c-1.8,0.1-3.6,0.7-5.5,0.4c-1.5-0.3-2.1-0.8-2-2.3
	c0.1-2.4-0.9-4.2-2.2-6.1c-2.1-3.1-2.9-6.7-2.5-10.5c0.2-1.5,0.9-2.1,2.5-2.3c1.7-0.2,3.4-0.7,5.1-0.7c2.2,0,4.3,0.6,6.5,1.4
	C65.1,348.2,65.7,350.6,65.5,352.6L65.5,352.6z"/>
<path class="st5" d="M73.6,386.9c-1.6,0.1-3.3,0-5.1-0.2c-2.1-0.2-3.4-2-3-4.1c0.1-0.3,0.1-0.7,0.2-1c1.4-2.6,1.2-5.4,1.2-8.2
	c0-1.2,0.5-1.6,1.6-1.6c3.5,0,6.8,1,9.8,2.5c2,1,2.5,3.1,2.7,5.1c0.2,1.5,0.3,3,0.3,4.4c0,1.4-0.7,2.2-1.9,2.6
	C77.6,387,75.6,386.9,73.6,386.9z"/>
<path class="st5" d="M25.6,362.5c3.8,0.3,7.6,0.2,11.3,1.3c2.3,0.7,4.3,1.6,5.4,4c0.3,0.6,0.4,1.1,0.5,1.8c0.1,1-0.2,1.7-1.2,1.9
	c-0.5,0.1-1,0.3-1.3,0.7c-1.5,2-3.8,2.1-6,2c-3.4-0.1-6.7-0.9-9.9-1.9c-0.3-0.1-0.6-0.2-0.9-0.4c-2.6-1.2-3.1-2.9-1.5-5.3
	c0.4-0.7,0.7-1.4,0.7-2.2c0-1.6,0.3-1.8,1.9-1.9C24.9,362.5,25.3,362.5,25.6,362.5L25.6,362.5z"/>
<path class="st5" d="M166,347.6c0.2,0,0.4,0,0.5,0c1.8,0.6,2.4,2.4,3.7,3.5c0.7,0.6,0,1.6-0.3,2.3c-2.4,4.8-6.5,7-11.6,7.6
	c-1,0.1-2,0.4-3.1,0c-0.7-0.3-1.1-0.5-1.2-1.3c-0.1-1.9-1.4-3.3-1.8-5.1c-0.3-1.2,0-2,1-2.6c3.4-2.3,7.3-3.2,11.2-4.1
	C164.9,347.7,165.5,347.5,166,347.6L166,347.6z"/>
<path class="st5" d="M110.3,383.2c-2.5,0-4.6-0.3-6.2-1.9c-2.1-1.9-2-4.4-1.4-6.9c0.1-0.4,0.3-0.9,0.4-1.3c0.9-2.4,2.9-3.5,5.4-2.9
	c0.6,0.1,1.2,0.5,1.5,1.1c0.8,1.6,2.1,2.8,3.3,4.1c1.1,1.2,1.4,2.6,1.9,4c0.1,0.3,0,0.6-0.2,0.8
	C113.5,381.7,112.5,383.8,110.3,383.2L110.3,383.2z"/>
<path class="st5" d="M153.8,326.2c-2.1-0.4-4.5-0.2-6.9-0.2c-0.7,0-1.4-0.3-1.8-1c-0.4-0.7,0.1-1.3,0.5-1.7c2.5-3,6.9-4.9,11.1-2.7
	c1.9,1,2,3.2,1.7,4.8c-0.1,0.5-0.6,0.5-1,0.6C156.3,326.1,155.2,326.1,153.8,326.2L153.8,326.2z"/>
<path class="st5" d="M29.1,347c-0.1-1.1,0.6-1.6,1.5-1.6c2.3-0.1,4.6,0,6.9,0.6c1.2,0.3,1.4,0.8,0.8,1.9c-0.8,1.8-1.9,3.4-2.3,5.3
	c-0.1,0.6-0.6,0.9-1.2,0.9c-2.2-0.1-5.3-1.7-4.9-4.5C30,348.6,29,348,29.1,347L29.1,347z"/>
<path class="st5" d="M148.8,312.8c-3.5,0-4.5-2.3-5.1-5.1c-0.1-0.6,0.9-1.5,1.6-1.4c2.5,0.1,5.2,2.2,6,4.6c0.3,0.9,0.2,1.6-1,1.8
	C149.8,312.7,149.3,312.8,148.8,312.8L148.8,312.8z"/>
<path class="st5" d="M65.7,339.6c0.1,1.7-0.8,2.2-2.3,1.5c-1.7-0.7-2.9-2.1-4.7-2.6c-0.4-0.1-0.6-0.8-0.6-1.3c0-0.5,0.4-0.7,0.8-0.8
	c1.9-0.3,3.8-0.7,5.7-0.9c0.8-0.1,1.1,0.7,1.1,1.4C65.7,337.8,65.7,338.7,65.7,339.6L65.7,339.6z"/>
<path class="st12" d="M74.1,327c-4,0-7.1-0.7-10.2-1.6c-1.9-0.5-3.8-0.4-5.7,0c-1.7,0.3-2.4-0.1-3-1.7c-0.5-1.4-0.7-2.9-0.9-4.3
	c-0.3-1.5,0.4-2.8,1.1-4c0.6-1.1,0.7-2.1,0.5-3.3c-0.6-2.8,0.6-4.4,3.9-5.5c2.8-0.9,5.7-1.2,8.6-1.7c3.5-0.7,6.9-1.6,9.9-3.7
	c1-0.7,2.2-0.9,3.3-0.8c5.4,0.5,10.4,2.2,14.2,6.1c2.7,2.8,3,7.5-0.8,10c-4.1,2.7-7.8,6-12.2,8.2C79.8,326.3,76.6,326.9,74.1,327
	L74.1,327z"/>
</svg>
